<svg width="24" height="24" viewBox="0 0 24 24" fill="none" xmlns="http://www.w3.org/2000/svg">
    <defs>
        
        <mask id="decoupe">
            <rect width="100%" height="100%" fill="white" />
            <g stroke="black" stroke-width="2.5"><path vector-effect="non-scaling-stroke" d="M16.0908 13.4666L14.1961 15.3613L16.0908 17.2561" stroke="black" stroke-width="4" stroke-linecap="round" stroke-linejoin="round"/> <path vector-effect="non-scaling-stroke" d="M21.3277 13.4666L23.2224 15.3613L21.3277 17.2561" stroke="black" stroke-width="4" stroke-linecap="round" stroke-linejoin="round"/> <path vector-effect="non-scaling-stroke" d="M17.3408 18.5192L20.0777 12.2034" stroke="black" stroke-width="4" stroke-linecap="round" stroke-linejoin="round"/><circle cx="20" cy="16" r="3" fill="black" stroke="none" /></g>
        </mask>
    </defs><path d="M7.78388 5H5C3.89543 5 3 5.89543 3 7V17C3 18.1046 3.89543 19 5 19H19C20.1046 19 21 18.1046 21 17V9.875C21 8.77043 20.1046 7.875 19 7.875H12.7161C12.2531 7.875 11.8044 7.71435 11.4466 7.42045L9.05336 5.45455C8.69558 5.16065 8.2469 5 7.78388 5Z" stroke="#42a5f5" stroke-width="2" fill="#42a5f5" mask="url(#decoupe)"/><path d="M16.0908 13.4666L14.1961 15.3613L16.0908 17.2561" stroke="#16A34A" stroke-width="1.25" stroke-linecap="round" stroke-linejoin="round"/> <path d="M21.3277 13.4666L23.2224 15.3613L21.3277 17.2561" stroke="#16A34A" stroke-width="1.25" stroke-linecap="round" stroke-linejoin="round"/> <path d="M17.3408 18.5192L20.0777 12.2034" stroke="#16A34A" stroke-width="1.25" stroke-linecap="round" stroke-linejoin="round"/></svg>