<svg width="24" height="24" viewBox="0 0 24 24" fill="none" xmlns="http://www.w3.org/2000/svg">
    <defs>
        
        <mask id="decoupe">
            <rect width="100%" height="100%" fill="white" />
            <g stroke="black" stroke-width="2.5"><g transform="translate(13.5, 11) scale(0.125)"> <path vector-effect="non-scaling-stroke" d="M0 0 C4.83855084 3.2673609 8.81847892 7.07699708 10.7421875 12.6796875 C11.66023182 19.63407634 11.84955251 26.76847514 8.1484375 32.94140625 C5.41542229 36.31971672 2.1053051 38.9574919 -1.2578125 41.6796875 C-2.60791531 42.99603774 -3.95196196 44.31942652 -5.2578125 45.6796875 C-4.7628125 47.13375 -4.7628125 47.13375 -4.2578125 48.6171875 C-2.60539808 54.5563002 -2.30895759 60.17596203 -4.7578125 65.9296875 C-7.37402117 70.40949687 -10.27248671 73.09576994 -15.2578125 74.6796875 C-24.17884052 75.72649556 -32.42847962 75.53285928 -40.2578125 70.6796875 C-41.2684375 70.1228125 -42.2790625 69.5659375 -43.3203125 68.9921875 C-52.50939282 61.75823065 -59.83391202 51.53902299 -61.2578125 39.6796875 C-62.22065516 26.88128657 -60.92918129 14.67614591 -52.3125 4.6171875 C-38.6433534 -8.27234997 -15.86101401 -9.27512584 0 0 Z M-30.2578125 54.6796875 C-30.32406661 58.5224258 -30.07680669 60.67169466 -27.6328125 63.6796875 C-24.10807105 65.16378916 -21.88970274 64.73623739 -18.2578125 63.6796875 C-15.67686313 60.85677413 -15.24391691 59.37446722 -15.3203125 55.5546875 C-16.04644767 52.64173543 -16.04644767 52.64173543 -18.0078125 50.8046875 C-23.5902012 48.01349315 -26.70188862 49.76414567 -30.2578125 54.6796875 Z " fill="black" stroke="black" transform="translate(73.2578125,13.3203125)"/> <path vector-effect="non-scaling-stroke" d="M0 0 C2.375 1.625 2.375 1.625 4 4 C4.61195145 7.6717087 4.48706506 9.28813568 2.375 12.375 C-0.71186432 14.48706506 -2.3282913 14.61195145 -6 14 C-8.375 12.375 -8.375 12.375 -10 10 C-10.61195145 6.3282913 -10.48706506 4.71186432 -8.375 1.625 C-5.28813568 -0.48706506 -3.6717087 -0.61195145 0 0 Z " fill="black" stroke="black" transform="translate(72,26)"/> <path vector-effect="non-scaling-stroke" d="M0 0 C2.375 1.625 2.375 1.625 4 4 C4.61195145 7.6717087 4.48706506 9.28813568 2.375 12.375 C-0.71186432 14.48706506 -2.3282913 14.61195145 -6 14 C-8.375 12.375 -8.375 12.375 -10 10 C-10.61195145 6.3282913 -10.48706506 4.71186432 -8.375 1.625 C-5.28813568 -0.48706506 -3.6717087 -0.61195145 0 0 Z " fill="black" stroke="black" transform="translate(34,24)"/> <path vector-effect="non-scaling-stroke" d="M0 0 C2.375 1.625 2.375 1.625 4 4 C4.61195145 7.6717087 4.48706506 9.28813568 2.375 12.375 C-0.71186432 14.48706506 -2.3282913 14.61195145 -6 14 C-8.375 12.375 -8.375 12.375 -10 10 C-10.61195145 6.3282913 -10.48706506 4.71186432 -8.375 1.625 C-5.28813568 -0.48706506 -3.6717087 -0.61195145 0 0 Z " fill="black" stroke="black" transform="translate(54,14)"/> <path vector-effect="non-scaling-stroke" d="M0 0 C4.91511194 1.34048507 4.91511194 1.34048507 6.4375 3.9375 C6.9375 6.875 6.9375 6.875 6.4375 9.9375 C4.0230817 12.55886844 2.35988403 13.73502546 -1.125 14.5 C-3.5625 13.9375 -3.5625 13.9375 -5.875 11.75 C-7.71206543 8.68822428 -8.276437 7.4179429 -7.5625 3.9375 C-5.24143877 0.40948693 -4.27159402 -0.07494025 0 0 Z " fill="black" stroke="black" transform="translate(29.5625,46.0625)"/> </g><circle cx="20" cy="16" r="3" fill="black" stroke="none" /></g>
        </mask>
    </defs><path d="M7.78388 5H5C3.89543 5 3 5.89543 3 7V17C3 18.1046 3.89543 19 5 19H19C20.1046 19 21 18.1046 21 17V9.875C21 8.77043 20.1046 7.875 19 7.875H12.7161C12.2531 7.875 11.8044 7.71435 11.4466 7.42045L9.05336 5.45455C8.69558 5.16065 8.2469 5 7.78388 5Z" stroke="#42a5f5" stroke-width="2" fill="#42a5f5" mask="url(#decoupe)"/><g transform="translate(13.5, 11) scale(0.125)"> <path d="M0 0 C4.83855084 3.2673609 8.81847892 7.07699708 10.7421875 12.6796875 C11.66023182 19.63407634 11.84955251 26.76847514 8.1484375 32.94140625 C5.41542229 36.31971672 2.1053051 38.9574919 -1.2578125 41.6796875 C-2.60791531 42.99603774 -3.95196196 44.31942652 -5.2578125 45.6796875 C-4.7628125 47.13375 -4.7628125 47.13375 -4.2578125 48.6171875 C-2.60539808 54.5563002 -2.30895759 60.17596203 -4.7578125 65.9296875 C-7.37402117 70.40949687 -10.27248671 73.09576994 -15.2578125 74.6796875 C-24.17884052 75.72649556 -32.42847962 75.53285928 -40.2578125 70.6796875 C-41.2684375 70.1228125 -42.2790625 69.5659375 -43.3203125 68.9921875 C-52.50939282 61.75823065 -59.83391202 51.53902299 -61.2578125 39.6796875 C-62.22065516 26.88128657 -60.92918129 14.67614591 -52.3125 4.6171875 C-38.6433534 -8.27234997 -15.86101401 -9.27512584 0 0 Z M-30.2578125 54.6796875 C-30.32406661 58.5224258 -30.07680669 60.67169466 -27.6328125 63.6796875 C-24.10807105 65.16378916 -21.88970274 64.73623739 -18.2578125 63.6796875 C-15.67686313 60.85677413 -15.24391691 59.37446722 -15.3203125 55.5546875 C-16.04644767 52.64173543 -16.04644767 52.64173543 -18.0078125 50.8046875 C-23.5902012 48.01349315 -26.70188862 49.76414567 -30.2578125 54.6796875 Z " fill="#FEC007" transform="translate(73.2578125,13.3203125)"/> <path d="M0 0 C2.375 1.625 2.375 1.625 4 4 C4.61195145 7.6717087 4.48706506 9.28813568 2.375 12.375 C-0.71186432 14.48706506 -2.3282913 14.61195145 -6 14 C-8.375 12.375 -8.375 12.375 -10 10 C-10.61195145 6.3282913 -10.48706506 4.71186432 -8.375 1.625 C-5.28813568 -0.48706506 -3.6717087 -0.61195145 0 0 Z " fill="#9F2DA9" transform="translate(72,26)"/> <path d="M0 0 C2.375 1.625 2.375 1.625 4 4 C4.61195145 7.6717087 4.48706506 9.28813568 2.375 12.375 C-0.71186432 14.48706506 -2.3282913 14.61195145 -6 14 C-8.375 12.375 -8.375 12.375 -10 10 C-10.61195145 6.3282913 -10.48706506 4.71186432 -8.375 1.625 C-5.28813568 -0.48706506 -3.6717087 -0.61195145 0 0 Z " fill="#53AF4D" transform="translate(34,24)"/> <path d="M0 0 C2.375 1.625 2.375 1.625 4 4 C4.61195145 7.6717087 4.48706506 9.28813568 2.375 12.375 C-0.71186432 14.48706506 -2.3282913 14.61195145 -6 14 C-8.375 12.375 -8.375 12.375 -10 10 C-10.61195145 6.3282913 -10.48706506 4.71186432 -8.375 1.625 C-5.28813568 -0.48706506 -3.6717087 -0.61195145 0 0 Z " fill="#2997E9" transform="translate(54,14)"/> <path d="M0 0 C4.91511194 1.34048507 4.91511194 1.34048507 6.4375 3.9375 C6.9375 6.875 6.9375 6.875 6.4375 9.9375 C4.0230817 12.55886844 2.35988403 13.73502546 -1.125 14.5 C-3.5625 13.9375 -3.5625 13.9375 -5.875 11.75 C-7.71206543 8.68822428 -8.276437 7.4179429 -7.5625 3.9375 C-5.24143877 0.40948693 -4.27159402 -0.07494025 0 0 Z " fill="#FF4100" transform="translate(29.5625,46.0625)"/> </g></svg>