<svg width="24" height="24" viewBox="0 0 24 24" fill="none" xmlns="http://www.w3.org/2000/svg">
    <defs>
        
        <mask id="decoupe">
            <rect width="100%" height="100%" fill="white" />
            <g stroke="black" stroke-width="2.5"><circle vector-effect="non-scaling-stroke" cx="21" cy="18" r="2" fill="black" stroke="black"/> <rect vector-effect="non-scaling-stroke" x="14" y="11" width="4" height="4" rx="1" fill="black" stroke="black"/> <path vector-effect="non-scaling-stroke" d="M16 16.5L17.7321 19.5H14.2679L16 16.5Z" fill="black" stroke="black"/> <path vector-effect="non-scaling-stroke" d="M20.3075 11.8713C20.5454 11.2285 21.4546 11.2285 21.6925 11.8713V11.8713C21.7672 12.0734 21.9266 12.2328 22.1287 12.3075V12.3075C22.7715 12.5454 22.7715 13.4546 22.1287 13.6925V13.6925C21.9266 13.7672 21.7672 13.9266 21.6925 14.1287V14.1287C21.4546 14.7715 20.5454 14.7715 20.3075 14.1287V14.1287C20.2328 13.9266 20.0734 13.7672 19.8713 13.6925V13.6925C19.2285 13.4546 19.2285 12.5454 19.8713 12.3075V12.3075C20.0734 12.2328 20.2328 12.0734 20.3075 11.8713V11.8713Z" fill="black" stroke="black"/><circle cx="20" cy="16" r="3" fill="black" stroke="none" /></g>
        </mask>
    </defs><path d="M7.78388 5H5C3.89543 5 3 5.89543 3 7V17C3 18.1046 3.89543 19 5 19H19C20.1046 19 21 18.1046 21 17V9.875C21 8.77043 20.1046 7.875 19 7.875H12.7161C12.2531 7.875 11.8044 7.71435 11.4466 7.42045L9.05336 5.45455C8.69558 5.16065 8.2469 5 7.78388 5Z" stroke="#42a5f5" stroke-width="2" fill="#42a5f5" mask="url(#decoupe)"/><circle cx="21" cy="18" r="2" fill="#2563EB"/> <rect x="14" y="11" width="4" height="4" rx="1" fill="#0D9488"/> <path d="M16 16.5L17.7321 19.5H14.2679L16 16.5Z" fill="#22D3EE"/> <path d="M20.3075 11.8713C20.5454 11.2285 21.4546 11.2285 21.6925 11.8713V11.8713C21.7672 12.0734 21.9266 12.2328 22.1287 12.3075V12.3075C22.7715 12.5454 22.7715 13.4546 22.1287 13.6925V13.6925C21.9266 13.7672 21.7672 13.9266 21.6925 14.1287V14.1287C21.4546 14.7715 20.5454 14.7715 20.3075 14.1287V14.1287C20.2328 13.9266 20.0734 13.7672 19.8713 13.6925V13.6925C19.2285 13.4546 19.2285 12.5454 19.8713 12.3075V12.3075C20.0734 12.2328 20.2328 12.0734 20.3075 11.8713V11.8713Z" fill="#C084FC"/></svg>