<svg width="24" height="24" viewBox="0 0 24 24" fill="none" xmlns="http://www.w3.org/2000/svg">
    <defs>
        
        <mask id="decoupe">
            <rect width="100%" height="100%" fill="white" />
            <g stroke="black" stroke-width="2.5"><path vector-effect="non-scaling-stroke" d="M19.5987 12.7334C20.2326 12.2091 20.5136 9.10972 20.7881 7.99561C21.0627 6.8817 22.1977 6.93797 22.1977 6.93797C22.1977 6.93797 21.9031 7.45095 22.0232 7.83371C22.1434 8.21648 22.9669 8.55852 22.9669 8.55852L22.7893 9.02675C22.7893 9.02675 22.4186 8.97931 22.1977 9.42085C21.9769 9.86219 22.3397 14.2333 22.3397 14.2333C22.3397 14.2333 21.0131 16.8497 21.0131 17.9542C21.0131 19.0589 21.5361 19.9846 21.5361 19.9846H20.8025C20.8025 19.9846 19.726 18.7036 19.5053 18.0637C19.2845 17.4235 19.3728 16.7834 19.3728 16.7834C19.3728 16.7834 18.203 16.7172 17.1655 16.7834C16.1283 16.8497 15.4363 17.7414 15.3115 18.2402C15.1866 18.7391 15.1348 19.9846 15.1348 19.9846H14.555C14.2018 18.8949 13.9212 18.5044 14.0735 17.9542C14.4948 16.4302 14.4121 15.5658 14.3145 15.1809C14.2169 14.7959 13.5563 14.46 13.5563 14.46C13.8799 13.8006 14.2102 13.4837 15.631 13.4507C17.0518 13.4177 18.9647 13.2579 19.5987 12.7334Z" fill="black" stroke="black"/> <path vector-effect="non-scaling-stroke" d="M15.9089 17.8904C15.9089 17.8904 16.0587 19.2776 16.8552 19.9846H17.5377C16.8552 19.2114 16.7809 17.1962 16.7809 17.1962C16.4336 17.3093 15.9531 17.7139 15.9089 17.8904Z" fill="black" stroke="black"/><circle cx="20" cy="16" r="3" fill="black" stroke="none" /></g>
        </mask>
    </defs><path d="M7.78388 5H5C3.89543 5 3 5.89543 3 7V17C3 18.1046 3.89543 19 5 19H19C20.1046 19 21 18.1046 21 17V9.875C21 8.77043 20.1046 7.875 19 7.875H12.7161C12.2531 7.875 11.8044 7.71435 11.4466 7.42045L9.05336 5.45455C8.69558 5.16065 8.2469 5 7.78388 5Z" stroke="#42a5f5" stroke-width="2" fill="#42a5f5" mask="url(#decoupe)"/><path d="M19.5987 12.7334C20.2326 12.2091 20.5136 9.10972 20.7881 7.99561C21.0627 6.8817 22.1977 6.93797 22.1977 6.93797C22.1977 6.93797 21.9031 7.45095 22.0232 7.83371C22.1434 8.21648 22.9669 8.55852 22.9669 8.55852L22.7893 9.02675C22.7893 9.02675 22.4186 8.97931 22.1977 9.42085C21.9769 9.86219 22.3397 14.2333 22.3397 14.2333C22.3397 14.2333 21.0131 16.8497 21.0131 17.9542C21.0131 19.0589 21.5361 19.9846 21.5361 19.9846H20.8025C20.8025 19.9846 19.726 18.7036 19.5053 18.0637C19.2845 17.4235 19.3728 16.7834 19.3728 16.7834C19.3728 16.7834 18.203 16.7172 17.1655 16.7834C16.1283 16.8497 15.4363 17.7414 15.3115 18.2402C15.1866 18.7391 15.1348 19.9846 15.1348 19.9846H14.555C14.2018 18.8949 13.9212 18.5044 14.0735 17.9542C14.4948 16.4302 14.4121 15.5658 14.3145 15.1809C14.2169 14.7959 13.5563 14.46 13.5563 14.46C13.8799 13.8006 14.2102 13.4837 15.631 13.4507C17.0518 13.4177 18.9647 13.2579 19.5987 12.7334Z" fill="#EA580C"/> <path d="M15.9089 17.8904C15.9089 17.8904 16.0587 19.2776 16.8552 19.9846H17.5377C16.8552 19.2114 16.7809 17.1962 16.7809 17.1962C16.4336 17.3093 15.9531 17.7139 15.9089 17.8904Z" fill="#EA580C"/></svg>