<svg width="24" height="24" viewBox="0 0 24 24" fill="none" xmlns="http://www.w3.org/2000/svg">
    <defs>
        
        <mask id="decoupe">
            <rect width="100%" height="100%" fill="white" />
            <g stroke="black" stroke-width="2.5"><path vector-effect="non-scaling-stroke" d="M13.9499 14.6542C14.1073 14.3795 14.0107 14.0312 13.7344 13.8768C13.459 13.7229 13.1091 13.82 12.9522 14.0937L11.5107 16.6091C11.3533 16.8838 11.4499 17.2321 11.7262 17.3865C12.0016 17.5404 12.3515 17.4434 12.5084 17.1696L13.9499 14.6542ZM17.5571 12.7254C17.7145 12.4508 17.6179 12.1024 17.3415 11.948C17.0661 11.7942 16.7162 11.8912 16.5593 12.1649L15.1178 14.6804C14.9604 14.9551 15.057 15.3034 15.3334 15.4578C15.6088 15.6116 15.9587 15.5146 16.1155 15.2409L17.5571 12.7254ZM23.3381 12.7255C23.4955 12.4509 23.3989 12.1025 23.1226 11.9481C22.8472 11.7943 22.4973 11.8913 22.3404 12.165L20.8989 14.6805C20.7415 14.9551 20.8381 15.3035 21.1144 15.4579C21.3898 15.6117 21.7397 15.5147 21.8966 15.241L23.3381 12.7255ZM19.7303 14.6542C19.8877 14.3795 19.7911 14.0312 19.5147 13.8768C19.2393 13.7229 18.8894 13.82 18.7325 14.0937L17.291 16.6091C17.1336 16.8838 17.2302 17.2321 17.5065 17.3865C17.782 17.5404 18.1319 17.4434 18.2887 17.1696L19.7303 14.6542Z" fill="black" stroke="black" stroke-width="4"/><circle cx="20" cy="16" r="3" fill="black" stroke="none" /></g>
        </mask>
    </defs><path d="M7.78388 5H5C3.89543 5 3 5.89543 3 7V17C3 18.1046 3.89543 19 5 19H19C20.1046 19 21 18.1046 21 17V9.875C21 8.77043 20.1046 7.875 19 7.875H12.7161C12.2531 7.875 11.8044 7.71435 11.4466 7.42045L9.05336 5.45455C8.69558 5.16065 8.2469 5 7.78388 5Z" stroke="#42a5f5" stroke-width="2" fill="#42a5f5" mask="url(#decoupe)"/><path d="M13.9499 14.6542C14.1073 14.3795 14.0107 14.0312 13.7344 13.8768C13.459 13.7229 13.1091 13.82 12.9522 14.0937L11.5107 16.6091C11.3533 16.8838 11.4499 17.2321 11.7262 17.3865C12.0016 17.5404 12.3515 17.4434 12.5084 17.1696L13.9499 14.6542ZM17.5571 12.7254C17.7145 12.4508 17.6179 12.1024 17.3415 11.948C17.0661 11.7942 16.7162 11.8912 16.5593 12.1649L15.1178 14.6804C14.9604 14.9551 15.057 15.3034 15.3334 15.4578C15.6088 15.6116 15.9587 15.5146 16.1155 15.2409L17.5571 12.7254ZM23.3381 12.7255C23.4955 12.4509 23.3989 12.1025 23.1226 11.9481C22.8472 11.7943 22.4973 11.8913 22.3404 12.165L20.8989 14.6805C20.7415 14.9551 20.8381 15.3035 21.1144 15.4579C21.3898 15.6117 21.7397 15.5147 21.8966 15.241L23.3381 12.7255ZM19.7303 14.6542C19.8877 14.3795 19.7911 14.0312 19.5147 13.8768C19.2393 13.7229 18.8894 13.82 18.7325 14.0937L17.291 16.6091C17.1336 16.8838 17.2302 17.2321 17.5065 17.3865C17.782 17.5404 18.1319 17.4434 18.2887 17.1696L19.7303 14.6542Z" fill="#4ADE80" stroke="#4ADE80" stroke-width="0.25"/></svg>