<?xml version="1.0" encoding="utf-8"?>
<svg width="24" height="24" viewBox="0 0 24 24" fill="none" xmlns="http://www.w3.org/2000/svg">
  <path fill-rule="evenodd" clip-rule="evenodd" d="M 5 4 C 3.343 4 2 5.343 2 7 L 2 17 C 2 18.657 3.343 20 5 20 L 12 20 L 12 18 L 5 18 C 4.448 18 4 17.552 4 17 L 4 7 C 4 6.448 4.448 6 5 6 L 7.784 6 C 8.015 6 8.24 6.08 8.419 6.227 L 10.812 8.193 C 11.349 8.634 12.022 8.875 12.716 8.875 L 19 8.875 C 19.552 8.875 20 9.323 20 9.875 L 20 11.542 L 22 11.533 L 22 9.875 C 22 8.218 20.657 6.875 19 6.875 L 12.716 6.875 C 12.485 6.875 12.26 6.795 12.081 6.648 L 9.688 4.682 C 9.151 4.241 8.478 4 7.784 4 L 5 4 Z" fill="#42a5f5"/>
  <path d="M 18.06 16.937 L 12.889 15.076 M 18.06 16.937 L 23.232 15.083 M 18.06 16.937 L 18.06 23.113 M 14.078 21.777 L 17.442 22.965 C 17.671 23.046 17.786 23.086 17.903 23.102 C 18.007 23.116 18.113 23.116 18.217 23.102 C 18.334 23.086 18.449 23.046 18.678 22.965 L 22.042 21.777 C 22.488 21.62 22.711 21.541 22.875 21.4 C 23.02 21.276 23.133 21.117 23.202 20.939 C 23.28 20.736 23.28 20.5 23.28 20.027 L 23.28 15.898 C 23.28 15.425 23.28 15.189 23.202 14.987 C 23.133 14.808 23.02 14.65 22.875 14.525 C 22.711 14.384 22.488 14.305 22.042 14.148 L 18.678 12.961 C 18.449 12.88 18.334 12.84 18.217 12.824 C 18.113 12.809 18.007 12.809 17.903 12.824 C 17.786 12.84 17.671 12.88 17.442 12.961 L 14.078 14.148 C 13.633 14.305 13.41 14.384 13.245 14.525 C 13.1 14.65 12.988 14.808 12.918 14.987 C 12.84 15.189 12.84 15.425 12.84 15.898 L 12.84 20.027 C 12.84 20.5 12.84 20.736 12.918 20.939 C 12.988 21.117 13.1 21.276 13.245 21.4 C 13.41 21.541 13.633 21.62 14.078 21.777 Z" stroke="#000000" stroke-linecap="round" stroke-linejoin="round" fill="#F59E0B" style=""/>
</svg>