<svg width="24" height="24" viewBox="0 0 24 24" fill="none" xmlns="http://www.w3.org/2000/svg">
    <defs>
         <clipPath id="clip0_4_143"> <rect width="12" height="11" fill="white" transform="translate(12 10)"/> </clipPath> 
        <mask id="decoupe">
            <rect width="100%" height="100%" fill="white" />
            <g stroke="black" stroke-width="2.5"><g> <path vector-effect="non-scaling-stroke" d="M18 16.4225C18.5607 16.4225 19.0152 16.0095 19.0152 15.5C19.0152 14.9905 18.5607 14.5775 18 14.5775C17.4393 14.5775 16.9848 14.9905 16.9848 15.5C16.9848 16.0095 17.4393 16.4225 18 16.4225Z" fill="black" stroke="black"/> <path vector-effect="non-scaling-stroke" d="M18 17.39C21.0085 17.39 23.4474 16.5438 23.4474 15.5C23.4474 14.4562 21.0085 13.61 18 13.61C14.9915 13.61 12.5526 14.4562 12.5526 15.5C12.5526 16.5438 14.9915 17.39 18 17.39Z" stroke="black"/> <path vector-effect="non-scaling-stroke" d="M16.1988 16.445C17.703 18.8125 19.7289 20.3088 20.7237 19.7868C21.7185 19.2649 21.3055 16.9226 19.8013 14.555C18.297 12.1874 16.2711 10.6913 15.2763 11.2132C14.2815 11.7351 14.6945 14.0774 16.1988 16.445Z" stroke="black"/> <path vector-effect="non-scaling-stroke" d="M16.1988 14.555C14.6945 16.9226 14.2815 19.2649 15.2763 19.7868C16.2711 20.3088 18.297 18.8125 19.8013 16.445C21.3055 14.0775 21.7185 11.7351 20.7237 11.2132C19.7289 10.6913 17.703 12.1875 16.1988 14.555Z" stroke="black"/> </g> <circle cx="20" cy="16" r="3" fill="black" stroke="none" /></g>
        </mask>
    </defs><path d="M7.78388 5H5C3.89543 5 3 5.89543 3 7V17C3 18.1046 3.89543 19 5 19H19C20.1046 19 21 18.1046 21 17V9.875C21 8.77043 20.1046 7.875 19 7.875H12.7161C12.2531 7.875 11.8044 7.71435 11.4466 7.42045L9.05336 5.45455C8.69558 5.16065 8.2469 5 7.78388 5Z" stroke="#42a5f5" stroke-width="2" fill="#42a5f5" mask="url(#decoupe)"/><g clip-path="url(#clip0_4_143)"> <path d="M18 16.4225C18.5607 16.4225 19.0152 16.0095 19.0152 15.5C19.0152 14.9905 18.5607 14.5775 18 14.5775C17.4393 14.5775 16.9848 14.9905 16.9848 15.5C16.9848 16.0095 17.4393 16.4225 18 16.4225Z" fill="#2563EB"/> <path d="M18 17.39C21.0085 17.39 23.4474 16.5438 23.4474 15.5C23.4474 14.4562 21.0085 13.61 18 13.61C14.9915 13.61 12.5526 14.4562 12.5526 15.5C12.5526 16.5438 14.9915 17.39 18 17.39Z" stroke="#2563EB"/> <path d="M16.1988 16.445C17.703 18.8125 19.7289 20.3088 20.7237 19.7868C21.7185 19.2649 21.3055 16.9226 19.8013 14.555C18.297 12.1874 16.2711 10.6913 15.2763 11.2132C14.2815 11.7351 14.6945 14.0774 16.1988 16.445Z" stroke="#2563EB"/> <path d="M16.1988 14.555C14.6945 16.9226 14.2815 19.2649 15.2763 19.7868C16.2711 20.3088 18.297 18.8125 19.8013 16.445C21.3055 14.0775 21.7185 11.7351 20.7237 11.2132C19.7289 10.6913 17.703 12.1875 16.1988 14.555Z" stroke="#2563EB"/> </g> </svg>