<svg width="24" height="24" viewBox="0 0 24 24" fill="none" xmlns="http://www.w3.org/2000/svg">
<path fill-rule="evenodd" clip-rule="evenodd" d="M5 4C3.34315 4 2 5.34315 2 7V17C2 18.6569 3.34315 20 5 20H13V18H5C4.44772 18 4 17.5523 4 17V7C4 6.44772 4.44772 6 5 6H7.78388C8.01539 6 8.23973 6.08033 8.41862 6.22727L10.8119 8.19318C11.3486 8.63402 12.0216 8.875 12.7161 8.875H19C19.5523 8.875 20 9.32272 20 9.875V10H22V9.875C22 8.21815 20.6569 6.875 19 6.875H12.7161C12.4846 6.875 12.2603 6.79467 12.0814 6.64773L9.6881 4.68182C9.15142 4.24098 8.47841 4 7.78388 4H5Z" fill="#42a5f5"/>
<path transform="translate(13.5, 12.5) scale(0.08)" fill="#EF4444" d="M60.83,17.18c8-8.35,13.62-15.57,26-17C110-2.46,131.27,21.26,119.57,44.61c-2.19,4.37-5.86,9.27-10.24,14.32L103.31,65.52L102,66.93c-8.23,8.52-17.34,16.87-23.72,23.2l-17.4,17.26L46.46,93.55c-8.76-8.44-20.32-18-29.71-28.72L11,57.63C4.74,49.1,0.38,39.89,0,29.94C-0.63,11.74,13.73,0.08,30.25,0.3c14.76,0.19,21,7.53,30.58,16.88Z"/>
</svg>
