<svg xmlns="http://www.w3.org/2000/svg" style="isolation:isolate" viewBox="0 0 24 24">
    <defs>
             <clipPath id="a">       <path d="M0 0h24v24H0z"/>     </clipPath>   
        <mask id="decoupe">
            <rect width="100%" height="100%" fill="white" />
            <g stroke="black" stroke-width="2.5">   <g>          <g fill="black" stroke="black">       <path vector-effect="non-scaling-stroke" d="M14.1 14.419v4.045c0 .781.633 1.415 1.414 1.415h7.072c.781 0 1.414-.634 1.414-1.415v-4.045l-4.209 2.59c-.454.28-1.028.28-1.482 0l-4.209-2.59Z"/>       <path vector-effect="non-scaling-stroke" d="M24 13.589v-.075c0-.781-.633-1.414-1.414-1.414h-7.072c-.781 0-1.414.633-1.414 1.414v.075l4.579 2.818c.228.14.514.14.742 0L24 13.589Z"/>     </g>   </g><circle cx="20" cy="16" r="3" fill="black" stroke="none" /></g>
        </mask>
    </defs><path d="M7.78388 5H5C3.89543 5 3 5.89543 3 7V17C3 18.1046 3.89543 19 5 19H19C20.1046 19 21 18.1046 21 17V9.875C21 8.77043 20.1046 7.875 19 7.875H12.7161C12.2531 7.875 11.8044 7.71435 11.4466 7.42045L9.05336 5.45455C8.69558 5.16065 8.2469 5 7.78388 5Z" stroke="#42a5f5" stroke-width="2" fill="#42a5f5" mask="url(#decoupe)"/>   <g clip-path="url(#a)">          <g fill="#F87171">       <path d="M14.1 14.419v4.045c0 .781.633 1.415 1.414 1.415h7.072c.781 0 1.414-.634 1.414-1.415v-4.045l-4.209 2.59c-.454.28-1.028.28-1.482 0l-4.209-2.59Z"/>       <path d="M24 13.589v-.075c0-.781-.633-1.414-1.414-1.414h-7.072c-.781 0-1.414.633-1.414 1.414v.075l4.579 2.818c.228.14.514.14.742 0L24 13.589Z"/>     </g>   </g></svg>