<svg width="24" height="24" viewBox="0 0 24 24" fill="none" xmlns="http://www.w3.org/2000/svg">
    <defs>
        
        <mask id="decoupe">
            <rect width="100%" height="100%" fill="white" />
            <g stroke="black" stroke-width="2.5"><path vector-effect="non-scaling-stroke" d="M16.7724 13.4044C17.0389 14.362 16.4849 15.3575 15.5523 15.5969L15.0577 15.7238C15.0197 15.9765 15 16.2358 15 16.5C15 16.7765 15.0216 17.0474 15.0632 17.3111L15.5198 17.4252C16.4617 17.6606 17.0216 18.6663 16.7474 19.6303L16.5896 20.1848C16.9615 20.5235 17.3851 20.7986 17.8461 20.9942L18.2638 20.5386C18.9313 19.8103 20.0507 19.8105 20.7181 20.539L21.1403 21C21.6004 20.8065 22.0237 20.534 22.3956 20.1982L22.228 19.5957C21.9615 18.638 22.5155 17.6425 23.4481 17.4032L23.9423 17.2762C23.9803 17.0235 24 16.7643 24 16.5C24 16.2236 23.9784 15.9526 23.9368 15.6888L23.4805 15.5748C22.5387 15.3395 21.9789 14.3338 22.2531 13.3697L22.4106 12.8156C22.0389 12.4768 21.6152 12.2017 21.1541 12.006L20.7367 12.4614C20.0691 13.1898 18.9497 13.1895 18.2823 12.461L17.86 12C17.3999 12.1934 16.9766 12.4658 16.6047 12.8017L16.7724 13.4044ZM19.5 17.8176C18.8222 17.8176 18.2727 17.2277 18.2727 16.5C18.2727 15.7724 18.8222 15.1825 19.5 15.1825C20.1778 15.1825 20.7273 15.7724 20.7273 16.5C20.7273 17.2277 20.1778 17.8176 19.5 17.8176Z" fill="black" stroke="black"/><circle cx="20" cy="16" r="3" fill="black" stroke="none" /></g>
        </mask>
    </defs><path d="M7.78388 5H5C3.89543 5 3 5.89543 3 7V17C3 18.1046 3.89543 19 5 19H19C20.1046 19 21 18.1046 21 17V9.875C21 8.77043 20.1046 7.875 19 7.875H12.7161C12.2531 7.875 11.8044 7.71435 11.4466 7.42045L9.05336 5.45455C8.69558 5.16065 8.2469 5 7.78388 5Z" stroke="#42a5f5" stroke-width="2" fill="#42a5f5" mask="url(#decoupe)"/><path d="M16.7724 13.4044C17.0389 14.362 16.4849 15.3575 15.5523 15.5969L15.0577 15.7238C15.0197 15.9765 15 16.2358 15 16.5C15 16.7765 15.0216 17.0474 15.0632 17.3111L15.5198 17.4252C16.4617 17.6606 17.0216 18.6663 16.7474 19.6303L16.5896 20.1848C16.9615 20.5235 17.3851 20.7986 17.8461 20.9942L18.2638 20.5386C18.9313 19.8103 20.0507 19.8105 20.7181 20.539L21.1403 21C21.6004 20.8065 22.0237 20.534 22.3956 20.1982L22.228 19.5957C21.9615 18.638 22.5155 17.6425 23.4481 17.4032L23.9423 17.2762C23.9803 17.0235 24 16.7643 24 16.5C24 16.2236 23.9784 15.9526 23.9368 15.6888L23.4805 15.5748C22.5387 15.3395 21.9789 14.3338 22.2531 13.3697L22.4106 12.8156C22.0389 12.4768 21.6152 12.2017 21.1541 12.006L20.7367 12.4614C20.0691 13.1898 18.9497 13.1895 18.2823 12.461L17.86 12C17.3999 12.1934 16.9766 12.4658 16.6047 12.8017L16.7724 13.4044ZM19.5 17.8176C18.8222 17.8176 18.2727 17.2277 18.2727 16.5C18.2727 15.7724 18.8222 15.1825 19.5 15.1825C20.1778 15.1825 20.7273 15.7724 20.7273 16.5C20.7273 17.2277 20.1778 17.8176 19.5 17.8176Z" fill="#C084FC"/></svg>