<svg width="24" height="24" viewBox="0 0 24 24" fill="none" xmlns="http://www.w3.org/2000/svg">
    <defs>
         <clipPath id="clip0_33548_239"> <rect width="10" height="11" fill="white" transform="translate(14 11)"/> </clipPath> 
        <mask id="decoupe">
            <rect width="100%" height="100%" fill="white" />
            <g stroke="black" stroke-width="2.5"><g> <path vector-effect="non-scaling-stroke" d="M20.9725 14.9939C20.9725 15.5707 20.4927 16.0383 19.9007 16.0383C19.3088 16.0383 18.8289 15.5707 18.8289 14.9939C18.8289 14.4171 19.3088 13.9495 19.9007 13.9495C20.4927 13.9495 20.9725 14.4171 20.9725 14.9939Z" fill="black" stroke="black"/> <path vector-effect="non-scaling-stroke" d="M18.098 16.9402C17.5061 16.9402 17.0262 17.4078 17.0262 17.9846C17.0262 18.5614 17.5061 19.029 18.098 19.029C18.69 19.029 19.1698 18.5614 19.1698 17.9846C19.1698 17.4078 18.69 16.9402 18.098 16.9402Z" fill="black" stroke="black"/> <path vector-effect="non-scaling-stroke" d="M22.1223 18.3407C21.6915 18.612 21.2123 18.8021 20.7094 18.9009C20.8552 18.496 20.9035 18.064 20.8507 17.6381C22.0208 17.2395 22.7968 16.155 22.7762 14.9475C22.7555 13.7399 21.9428 12.6812 20.7597 12.3209C19.5767 11.9605 18.2898 12.3797 17.567 13.3609C17.0217 13.4207 16.491 13.5716 15.9983 13.8071C16.5336 12.1242 18.1389 10.9831 19.947 11.0002C21.7552 11.0173 23.3374 12.1886 23.8391 13.8814C24.3407 15.5741 23.6427 17.387 22.1223 18.3407V18.3407ZM16.047 14.5334L17.0507 14.6521C17.0734 14.4632 17.1159 14.2771 17.1773 14.0966C16.7803 14.1866 16.3994 14.3338 16.047 14.5334Z" fill="black" stroke="black"/> <path vector-effect="non-scaling-stroke" d="M15.8716 14.6379C16.305 14.3638 16.7877 14.1721 17.2942 14.073C17.141 14.4777 17.086 14.9115 17.1334 15.3404C15.9675 15.7446 15.1979 16.8305 15.223 18.0361C15.2481 19.2416 16.0623 20.2962 17.2441 20.654C18.4258 21.0117 19.71 20.5923 20.4317 19.6129C20.9768 19.5546 21.5075 19.4053 22.0005 19.1714C21.4639 20.8526 19.8594 21.9918 18.0527 21.9745C16.2459 21.9572 14.6646 20.7876 14.162 19.0965C13.6592 17.4055 14.3541 15.5934 15.8716 14.6379H15.8716Z" fill="black" stroke="black"/> </g>  <circle cx="20" cy="16" r="3" fill="black" stroke="none" /></g>
        </mask>
    </defs><path d="M7.78388 5H5C3.89543 5 3 5.89543 3 7V17C3 18.1046 3.89543 19 5 19H19C20.1046 19 21 18.1046 21 17V9.875C21 8.77043 20.1046 7.875 19 7.875H12.7161C12.2531 7.875 11.8044 7.71435 11.4466 7.42045L9.05336 5.45455C8.69558 5.16065 8.2469 5 7.78388 5Z" stroke="#42a5f5" stroke-width="2" fill="#42a5f5" mask="url(#decoupe)"/><g clip-path="url(#clip0_33548_239)"> <path d="M20.9725 14.9939C20.9725 15.5707 20.4927 16.0383 19.9007 16.0383C19.3088 16.0383 18.8289 15.5707 18.8289 14.9939C18.8289 14.4171 19.3088 13.9495 19.9007 13.9495C20.4927 13.9495 20.9725 14.4171 20.9725 14.9939Z" fill="#EAB308"/> <path d="M18.098 16.9402C17.5061 16.9402 17.0262 17.4078 17.0262 17.9846C17.0262 18.5614 17.5061 19.029 18.098 19.029C18.69 19.029 19.1698 18.5614 19.1698 17.9846C19.1698 17.4078 18.69 16.9402 18.098 16.9402Z" fill="#0891B2"/> <path d="M22.1223 18.3407C21.6915 18.612 21.2123 18.8021 20.7094 18.9009C20.8552 18.496 20.9035 18.064 20.8507 17.6381C22.0208 17.2395 22.7968 16.155 22.7762 14.9475C22.7555 13.7399 21.9428 12.6812 20.7597 12.3209C19.5767 11.9605 18.2898 12.3797 17.567 13.3609C17.0217 13.4207 16.491 13.5716 15.9983 13.8071C16.5336 12.1242 18.1389 10.9831 19.947 11.0002C21.7552 11.0173 23.3374 12.1886 23.8391 13.8814C24.3407 15.5741 23.6427 17.387 22.1223 18.3407V18.3407ZM16.047 14.5334L17.0507 14.6521C17.0734 14.4632 17.1159 14.2771 17.1773 14.0966C16.7803 14.1866 16.3994 14.3338 16.047 14.5334Z" fill="#EAB308"/> <path d="M15.8716 14.6379C16.305 14.3638 16.7877 14.1721 17.2942 14.073C17.141 14.4777 17.086 14.9115 17.1334 15.3404C15.9675 15.7446 15.1979 16.8305 15.223 18.0361C15.2481 19.2416 16.0623 20.2962 17.2441 20.654C18.4258 21.0117 19.71 20.5923 20.4317 19.6129C20.9768 19.5546 21.5075 19.4053 22.0005 19.1714C21.4639 20.8526 19.8594 21.9918 18.0527 21.9745C16.2459 21.9572 14.6646 20.7876 14.162 19.0965C13.6592 17.4055 14.3541 15.5934 15.8716 14.6379H15.8716Z" fill="#0891B2"/> </g>  </svg>