<svg width="24" height="24" viewBox="0 0 24 24" fill="none" xmlns="http://www.w3.org/2000/svg">
    <defs>
         <linearGradient id="paint0_linear_4_143" x1="23.383" y1="15.0322" x2="18.9148" y2="17.9205" gradientUnits="userSpaceOnUse"> <stop offset="0.081" stop-color="#69D3A7"/> <stop offset="1" stop-color="#69D3A7" stop-opacity="0"/> </linearGradient> <linearGradient id="paint1_linear_4_143" x1="16.3353" y1="10.0636" x2="13.5235" y2="16.0176" gradientUnits="userSpaceOnUse"> <stop stop-color="#69D3A7"/> <stop offset="0.823" stop-color="#2AB586"/> <stop offset="1" stop-color="#1CAE7F"/> </linearGradient> <linearGradient id="paint2_linear_4_143" x1="12.9929" y1="17.2897" x2="20.3486" y2="19.5945" gradientUnits="userSpaceOnUse"> <stop offset="0.077" stop-color="#1CAE7F"/> <stop offset="0.164" stop-color="#1CA379"/> <stop offset="0.316" stop-color="#1C8568"/> <stop offset="0.516" stop-color="#1B554D"/> <stop offset="0.719" stop-color="#1B1E2E"/> </linearGradient> <clipPath id="clip0_4_143"> <rect width="10" height="10" fill="white" transform="translate(13 10)"/> </clipPath> 
        <mask id="decoupe">
            <rect width="100%" height="100%" fill="white" />
            <g stroke="black" stroke-width="2.5"><g> <path vector-effect="non-scaling-stroke" d="M16.5144 13.9685C16.9185 13.9685 17.2469 14.1846 17.4153 14.5599L17.428 14.5894L18.1058 14.3585L18.0921 14.3237C17.83 13.6828 17.2248 13.2853 16.5144 13.2853C16.0144 13.2853 15.6081 13.4456 15.2724 13.7755C14.9387 14.1034 14.7703 14.5156 14.7703 15.0005C14.7703 15.4823 14.9398 15.8924 15.2724 16.2192C15.6081 16.5492 16.0144 16.7094 16.5144 16.7094C17.2248 16.7094 17.829 16.3109 18.0921 15.671L18.1058 15.6362L17.4269 15.4053L17.4153 15.4359C17.2638 15.8059 16.927 16.0263 16.5144 16.0263C16.2333 16.0263 15.9955 15.9282 15.8081 15.7342C15.6176 15.5382 15.5218 15.2904 15.5218 15.0005C15.5218 14.7085 15.6155 14.466 15.8081 14.2605C15.9965 14.0665 16.2333 13.9685 16.5144 13.9685Z" fill="black" stroke="black"/> <path vector-effect="non-scaling-stroke" d="M16.5144 13.9685C16.9185 13.9685 17.2469 14.1846 17.4153 14.5599L17.428 14.5894L18.1058 14.3585L18.0921 14.3237C17.83 13.6828 17.2248 13.2853 16.5144 13.2853C16.0144 13.2853 15.6081 13.4456 15.2724 13.7755C14.9387 14.1034 14.7703 14.5156 14.7703 15.0005C14.7703 15.4823 14.9398 15.8924 15.2724 16.2192C15.6081 16.5492 16.0144 16.7094 16.5144 16.7094C17.2248 16.7094 17.829 16.3109 18.0921 15.671L18.1058 15.6362L17.4269 15.4053L17.4153 15.4359C17.2638 15.8059 16.927 16.0263 16.5144 16.0263C16.2333 16.0263 15.9955 15.9282 15.8081 15.7342C15.6176 15.5382 15.5218 15.2904 15.5218 15.0005C15.5218 14.7085 15.6155 14.466 15.8081 14.2605C15.9965 14.0665 16.2333 13.9685 16.5144 13.9685Z" fill="black" stroke="black" fill-opacity="0.08"/> <path vector-effect="non-scaling-stroke" d="M19.4572 19.7835L19.2551 19.1161C21.0781 18.5616 22.3032 16.9076 22.3032 15.0005C22.3032 14.4745 22.2096 13.96 22.0243 13.473L22.6748 13.2252C22.8905 13.7924 23 14.3891 23 15.0016C22.9989 17.2165 21.5759 19.1383 19.4572 19.7835Z" fill="black" stroke="black"/> <path vector-effect="non-scaling-stroke" d="M22.1148 13.7399C21.558 11.9203 19.9045 10.6985 17.9995 10.6985C17.7406 10.6985 17.4816 10.7217 17.229 10.767L17.1059 10.0807C17.3985 10.028 17.6995 10.0006 17.9995 10.0006C20.2119 10.0006 22.1327 11.4206 22.78 13.5343L22.1148 13.7399Z" fill="black" stroke="black"/> <path vector-effect="non-scaling-stroke" d="M13.32 16.7632C13.1074 16.2002 13 15.6067 13 15.0005C13 12.4177 14.9356 10.2787 17.5027 10.0257L17.5711 10.7194C15.3619 10.9376 13.6957 12.7783 13.6957 15.0005C13.6957 15.5224 13.7883 16.0337 13.9704 16.5175L13.32 16.7632Z" fill="black" stroke="black"/> <path vector-effect="non-scaling-stroke" d="M20.7592 13.3486L19.794 15.7986L18.8215 13.3486H18.0258L19.3899 16.6925L18.3963 19.1067L19.092 19.2458L21.5107 13.3486H20.7592Z" fill="black" stroke="black"/> <path vector-effect="non-scaling-stroke" d="M20.7592 13.3486L19.794 15.7986L18.8215 13.3486H18.0258L19.3899 16.6925L18.3963 19.1067L19.092 19.2458L21.5107 13.3486H20.7592Z" fill="black" stroke="black" fill-opacity="0.08"/> <path vector-effect="non-scaling-stroke" d="M18.5215 18.8031L18.3752 19.1583C18.3415 19.2395 18.2647 19.2954 18.1784 19.2985C18.1184 19.3006 18.0595 19.3027 17.9984 19.3027C16.0881 19.3027 14.3872 18.0219 13.862 16.1876L13.1926 16.3794C13.8031 18.51 15.7787 19.9985 17.9974 19.9996H17.9984C18.0679 19.9996 18.1374 19.9985 18.2068 19.9954C18.5636 19.9806 18.8825 19.7561 19.0194 19.424L19.2172 18.9422L18.5215 18.8031Z" fill="black" stroke="black"/> </g> <circle cx="20" cy="16" r="3" fill="black" stroke="none" /></g>
        </mask>
    </defs><path d="M7.78388 5H5C3.89543 5 3 5.89543 3 7V17C3 18.1046 3.89543 19 5 19H19C20.1046 19 21 18.1046 21 17V9.875C21 8.77043 20.1046 7.875 19 7.875H12.7161C12.2531 7.875 11.8044 7.71435 11.4466 7.42045L9.05336 5.45455C8.69558 5.16065 8.2469 5 7.78388 5Z" stroke="#42a5f5" stroke-width="2" fill="#42a5f5" mask="url(#decoupe)"/><g clip-path="url(#clip0_4_143)"> <path d="M16.5144 13.9685C16.9185 13.9685 17.2469 14.1846 17.4153 14.5599L17.428 14.5894L18.1058 14.3585L18.0921 14.3237C17.83 13.6828 17.2248 13.2853 16.5144 13.2853C16.0144 13.2853 15.6081 13.4456 15.2724 13.7755C14.9387 14.1034 14.7703 14.5156 14.7703 15.0005C14.7703 15.4823 14.9398 15.8924 15.2724 16.2192C15.6081 16.5492 16.0144 16.7094 16.5144 16.7094C17.2248 16.7094 17.829 16.3109 18.0921 15.671L18.1058 15.6362L17.4269 15.4053L17.4153 15.4359C17.2638 15.8059 16.927 16.0263 16.5144 16.0263C16.2333 16.0263 15.9955 15.9282 15.8081 15.7342C15.6176 15.5382 15.5218 15.2904 15.5218 15.0005C15.5218 14.7085 15.6155 14.466 15.8081 14.2605C15.9965 14.0665 16.2333 13.9685 16.5144 13.9685Z" fill="#69D3A7"/> <path d="M16.5144 13.9685C16.9185 13.9685 17.2469 14.1846 17.4153 14.5599L17.428 14.5894L18.1058 14.3585L18.0921 14.3237C17.83 13.6828 17.2248 13.2853 16.5144 13.2853C16.0144 13.2853 15.6081 13.4456 15.2724 13.7755C14.9387 14.1034 14.7703 14.5156 14.7703 15.0005C14.7703 15.4823 14.9398 15.8924 15.2724 16.2192C15.6081 16.5492 16.0144 16.7094 16.5144 16.7094C17.2248 16.7094 17.829 16.3109 18.0921 15.671L18.1058 15.6362L17.4269 15.4053L17.4153 15.4359C17.2638 15.8059 16.927 16.0263 16.5144 16.0263C16.2333 16.0263 15.9955 15.9282 15.8081 15.7342C15.6176 15.5382 15.5218 15.2904 15.5218 15.0005C15.5218 14.7085 15.6155 14.466 15.8081 14.2605C15.9965 14.0665 16.2333 13.9685 16.5144 13.9685Z" fill="#69D3A7" fill-opacity="0.08"/> <path d="M19.4572 19.7835L19.2551 19.1161C21.0781 18.5616 22.3032 16.9076 22.3032 15.0005C22.3032 14.4745 22.2096 13.96 22.0243 13.473L22.6748 13.2252C22.8905 13.7924 23 14.3891 23 15.0016C22.9989 17.2165 21.5759 19.1383 19.4572 19.7835Z" fill="url(#paint0_linear_4_143)"/> <path d="M22.1148 13.7399C21.558 11.9203 19.9045 10.6985 17.9995 10.6985C17.7406 10.6985 17.4816 10.7217 17.229 10.767L17.1059 10.0807C17.3985 10.028 17.6995 10.0006 17.9995 10.0006C20.2119 10.0006 22.1327 11.4206 22.78 13.5343L22.1148 13.7399Z" fill="#69D3A7"/> <path d="M13.32 16.7632C13.1074 16.2002 13 15.6067 13 15.0005C13 12.4177 14.9356 10.2787 17.5027 10.0257L17.5711 10.7194C15.3619 10.9376 13.6957 12.7783 13.6957 15.0005C13.6957 15.5224 13.7883 16.0337 13.9704 16.5175L13.32 16.7632Z" fill="url(#paint1_linear_4_143)"/> <path d="M20.7592 13.3486L19.794 15.7986L18.8215 13.3486H18.0258L19.3899 16.6925L18.3963 19.1067L19.092 19.2458L21.5107 13.3486H20.7592Z" fill="#69D3A7"/> <path d="M20.7592 13.3486L19.794 15.7986L18.8215 13.3486H18.0258L19.3899 16.6925L18.3963 19.1067L19.092 19.2458L21.5107 13.3486H20.7592Z" fill="#69D3A7" fill-opacity="0.08"/> <path d="M18.5215 18.8031L18.3752 19.1583C18.3415 19.2395 18.2647 19.2954 18.1784 19.2985C18.1184 19.3006 18.0595 19.3027 17.9984 19.3027C16.0881 19.3027 14.3872 18.0219 13.862 16.1876L13.1926 16.3794C13.8031 18.51 15.7787 19.9985 17.9974 19.9996H17.9984C18.0679 19.9996 18.1374 19.9985 18.2068 19.9954C18.5636 19.9806 18.8825 19.7561 19.0194 19.424L19.2172 18.9422L18.5215 18.8031Z" fill="url(#paint2_linear_4_143)"/> </g> </svg>