<svg width="24" height="24" viewBox="0 0 24 24" fill="none" xmlns="http://www.w3.org/2000/svg">
    <defs>
        
        <mask id="decoupe">
            <rect width="100%" height="100%" fill="white" />
            <g stroke="black" stroke-width="2.5"><path vector-effect="non-scaling-stroke" d="M24 17H23.5C23.2239 17 23 17.2239 23 17.5V17.5C23 17.7761 22.7761 18 22.5 18H20.5C20.2239 18 20 17.7761 20 17.5V16.5V15.5V13C20 12.7348 19.8946 12.4804 19.7071 12.2929C19.5196 12.1054 19.2652 12 19 12H15.5C15.2239 12 15 11.7761 15 11.5V11.5C15 11.2239 14.7761 11 14.5 11V11C14.2239 11 14 11.2239 14 11.5V14.5C14 14.7761 14.2239 15 14.5 15V15C14.7761 15 15 14.7761 15 14.5V14.5C15 14.2239 15.2239 14 15.5 14H17.5C17.7761 14 18 14.2239 18 14.5V15.5V16.5V19C18 19.2652 18.1054 19.5196 18.2929 19.7071C18.4804 19.8946 18.7348 20 19 20H22.5C22.7761 20 23 20.2239 23 20.5V20.5C23 20.7761 23.2239 21 23.5 21H24" fill="black" stroke="black"/><circle cx="20" cy="16" r="3" fill="black" stroke="none" /></g>
        </mask>
    </defs><path d="M7.78388 5H5C3.89543 5 3 5.89543 3 7V17C3 18.1046 3.89543 19 5 19H19C20.1046 19 21 18.1046 21 17V9.875C21 8.77043 20.1046 7.875 19 7.875H12.7161C12.2531 7.875 11.8044 7.71435 11.4466 7.42045L9.05336 5.45455C8.69558 5.16065 8.2469 5 7.78388 5Z" stroke="#42a5f5" stroke-width="2" fill="#42a5f5" mask="url(#decoupe)"/><path d="M24 17H23.5C23.2239 17 23 17.2239 23 17.5V17.5C23 17.7761 22.7761 18 22.5 18H20.5C20.2239 18 20 17.7761 20 17.5V16.5V15.5V13C20 12.7348 19.8946 12.4804 19.7071 12.2929C19.5196 12.1054 19.2652 12 19 12H15.5C15.2239 12 15 11.7761 15 11.5V11.5C15 11.2239 14.7761 11 14.5 11V11C14.2239 11 14 11.2239 14 11.5V14.5C14 14.7761 14.2239 15 14.5 15V15C14.7761 15 15 14.7761 15 14.5V14.5C15 14.2239 15.2239 14 15.5 14H17.5C17.7761 14 18 14.2239 18 14.5V15.5V16.5V19C18 19.2652 18.1054 19.5196 18.2929 19.7071C18.4804 19.8946 18.7348 20 19 20H22.5C22.7761 20 23 20.2239 23 20.5V20.5C23 20.7761 23.2239 21 23.5 21H24" fill="#16A34A"/></svg>