<svg width="24" height="24" viewBox="0 0 24 24" fill="none" xmlns="http://www.w3.org/2000/svg">
    <defs>
        
        <mask id="decoupe">
            <rect width="100%" height="100%" fill="white" />
            <g stroke="black" stroke-width="2.5"><path vector-effect="non-scaling-stroke" d="M18.073 11.1277C18.3794 10.9574 18.752 10.9574 19.0585 11.1277L22.8705 13.2455C23.0316 13.335 23.1315 13.5047 23.1315 13.689V17.8665C23.1315 18.2349 22.9317 18.5745 22.6096 18.7534L19.0585 20.7263C18.752 20.8965 18.3794 20.8965 18.073 20.7263L14.5219 18.7534C14.1998 18.5745 14 18.2349 14 17.8665V13.689C14 13.5047 14.0999 13.335 14.2609 13.2455L18.073 11.1277Z" stroke="black" stroke-linecap="round" stroke-linejoin="round"/> <path vector-effect="non-scaling-stroke" d="M16.2829 12.1222L20.8486 14.6587V16.4343" stroke="black" stroke-linecap="round" stroke-linejoin="round"/> <path vector-effect="non-scaling-stroke" d="M14 13.3905L18.5657 15.927M18.5657 15.927L23.1315 13.3905M18.5657 15.927V21" stroke="black" stroke-linejoin="round"/><circle cx="20" cy="16" r="3" fill="black" stroke="none" /></g>
        </mask>
    </defs><path d="M7.78388 5H5C3.89543 5 3 5.89543 3 7V17C3 18.1046 3.89543 19 5 19H19C20.1046 19 21 18.1046 21 17V9.875C21 8.77043 20.1046 7.875 19 7.875H12.7161C12.2531 7.875 11.8044 7.71435 11.4466 7.42045L9.05336 5.45455C8.69558 5.16065 8.2469 5 7.78388 5Z" stroke="#42a5f5" stroke-width="2" fill="#42a5f5" mask="url(#decoupe)"/><path d="M18.073 11.1277C18.3794 10.9574 18.752 10.9574 19.0585 11.1277L22.8705 13.2455C23.0316 13.335 23.1315 13.5047 23.1315 13.689V17.8665C23.1315 18.2349 22.9317 18.5745 22.6096 18.7534L19.0585 20.7263C18.752 20.8965 18.3794 20.8965 18.073 20.7263L14.5219 18.7534C14.1998 18.5745 14 18.2349 14 17.8665V13.689C14 13.5047 14.0999 13.335 14.2609 13.2455L18.073 11.1277Z" stroke="#C084FC" stroke-linecap="round" stroke-linejoin="round"/> <path d="M16.2829 12.1222L20.8486 14.6587V16.4343" stroke="#C084FC" stroke-linecap="round" stroke-linejoin="round"/> <path d="M14 13.3905L18.5657 15.927M18.5657 15.927L23.1315 13.3905M18.5657 15.927V21" stroke="#C084FC" stroke-linejoin="round"/></svg>