<svg width="24" height="24" viewBox="0 0 24 24" fill="none" xmlns="http://www.w3.org/2000/svg">
    <defs>
        
        <mask id="decoupe">
            <rect width="100%" height="100%" fill="white" />
            <g stroke="black" stroke-width="2.5"><path vector-effect="non-scaling-stroke" fill-rule="evenodd" clip-rule="evenodd" d="M16 12C15.4477 12 15 12.4477 15 13V14.5556C15 15.1078 15.4477 15.5556 16 15.5556H17.5556C18.1078 15.5556 18.5556 15.1078 18.5556 14.5556V13C18.5556 12.4477 18.1078 12 17.5556 12H16ZM16 16.4444C15.4477 16.4444 15 16.8922 15 17.4444V19C15 19.5523 15.4477 20 16 20H17.5556C18.1078 20 18.5556 19.5523 18.5556 19V17.4444C18.5556 16.8922 18.1078 16.4444 17.5556 16.4444H16ZM19.4444 13C19.4444 12.4477 19.8922 12 20.4444 12H22C22.5523 12 23 12.4477 23 13V14.5556C23 15.1078 22.5523 15.5556 22 15.5556H20.4444C19.8922 15.5556 19.4444 15.1078 19.4444 14.5556V13ZM20.4444 16.4444C19.8922 16.4444 19.4444 16.8922 19.4444 17.4444V19C19.4444 19.5523 19.8922 20 20.4444 20H22C22.5523 20 23 19.5523 23 19V17.4444C23 16.8922 22.5523 16.4444 22 16.4444H20.4444Z" fill="black" stroke="black"/><circle cx="20" cy="16" r="3" fill="black" stroke="none" /></g>
        </mask>
    </defs><path d="M7.78388 5H5C3.89543 5 3 5.89543 3 7V17C3 18.1046 3.89543 19 5 19H19C20.1046 19 21 18.1046 21 17V9.875C21 8.77043 20.1046 7.875 19 7.875H12.7161C12.2531 7.875 11.8044 7.71435 11.4466 7.42045L9.05336 5.45455C8.69558 5.16065 8.2469 5 7.78388 5Z" stroke="#42a5f5" stroke-width="2" fill="#42a5f5" mask="url(#decoupe)"/><path fill-rule="evenodd" clip-rule="evenodd" d="M16 12C15.4477 12 15 12.4477 15 13V14.5556C15 15.1078 15.4477 15.5556 16 15.5556H17.5556C18.1078 15.5556 18.5556 15.1078 18.5556 14.5556V13C18.5556 12.4477 18.1078 12 17.5556 12H16ZM16 16.4444C15.4477 16.4444 15 16.8922 15 17.4444V19C15 19.5523 15.4477 20 16 20H17.5556C18.1078 20 18.5556 19.5523 18.5556 19V17.4444C18.5556 16.8922 18.1078 16.4444 17.5556 16.4444H16ZM19.4444 13C19.4444 12.4477 19.8922 12 20.4444 12H22C22.5523 12 23 12.4477 23 13V14.5556C23 15.1078 22.5523 15.5556 22 15.5556H20.4444C19.8922 15.5556 19.4444 15.1078 19.4444 14.5556V13ZM20.4444 16.4444C19.8922 16.4444 19.4444 16.8922 19.4444 17.4444V19C19.4444 19.5523 19.8922 20 20.4444 20H22C22.5523 20 23 19.5523 23 19V17.4444C23 16.8922 22.5523 16.4444 22 16.4444H20.4444Z" fill="#C084FC"/></svg>