<svg width="24" height="24" viewBox="0 0 24 24" fill="none" xmlns="http://www.w3.org/2000/svg">
    <defs>
        
        <mask id="decoupe">
            <rect width="100%" height="100%" fill="white" />
            <g stroke="black" stroke-width="2.5"><path vector-effect="non-scaling-stroke" fill-rule="evenodd" clip-rule="evenodd" d="M15.076 17.7366C14.9761 17.5791 14.9746 17.3785 15.0721 17.2195L18.7419 11.2333C18.946 10.9004 19.4389 10.9295 19.6024 11.2841L22.9549 18.5566C23.0793 18.8264 22.9361 19.1439 22.6515 19.2293L17.4363 20.7939C17.2265 20.8568 17.0004 20.7724 16.8831 20.5874L15.076 17.7366ZM19.1653 12.9836C19.2006 12.8075 19.4419 12.7821 19.5132 12.947L21.8257 18.2981C21.8692 18.3989 21.8151 18.515 21.7099 18.5464L18.1067 19.622C17.9742 19.6616 17.8473 19.5459 17.8746 19.4103L19.1653 12.9836Z" fill="black" stroke="black"/><circle cx="20" cy="16" r="3" fill="black" stroke="none" /></g>
        </mask>
    </defs><path d="M7.78388 5H5C3.89543 5 3 5.89543 3 7V17C3 18.1046 3.89543 19 5 19H19C20.1046 19 21 18.1046 21 17V9.875C21 8.77043 20.1046 7.875 19 7.875H12.7161C12.2531 7.875 11.8044 7.71435 11.4466 7.42045L9.05336 5.45455C8.69558 5.16065 8.2469 5 7.78388 5Z" stroke="#42a5f5" stroke-width="2" fill="#42a5f5" mask="url(#decoupe)"/><path fill-rule="evenodd" clip-rule="evenodd" d="M15.076 17.7366C14.9761 17.5791 14.9746 17.3785 15.0721 17.2195L18.7419 11.2333C18.946 10.9004 19.4389 10.9295 19.6024 11.2841L22.9549 18.5566C23.0793 18.8264 22.9361 19.1439 22.6515 19.2293L17.4363 20.7939C17.2265 20.8568 17.0004 20.7724 16.8831 20.5874L15.076 17.7366ZM19.1653 12.9836C19.2006 12.8075 19.4419 12.7821 19.5132 12.947L21.8257 18.2981C21.8692 18.3989 21.8151 18.515 21.7099 18.5464L18.1067 19.622C17.9742 19.6616 17.8473 19.5459 17.8746 19.4103L19.1653 12.9836Z" fill="#14B8A6"/></svg>