<svg width="24" height="24" viewBox="0 0 24 24" fill="none" xmlns="http://www.w3.org/2000/svg">
    <defs>
        
        <mask id="decoupe">
            <rect width="100%" height="100%" fill="white" />
            <g stroke="black" stroke-width="2.5"><path vector-effect="non-scaling-stroke" d="M14 14.625V12H16.625M20.125 12H22.75V14.625" stroke="black" stroke-width="4" stroke-linecap="round" stroke-linejoin="round"/> <path vector-effect="non-scaling-stroke" d="M14 12L17.8622 15.8622C18.1905 16.1904 18.3749 16.6354 18.375 17.0995M18.375 17.0995V20M18.375 17.0995C18.3751 16.6354 18.5595 16.1904 18.8877 15.8622L22.75 12" stroke="black" stroke-width="4" stroke-linecap="round" stroke-linejoin="round"/><circle cx="20" cy="16" r="3" fill="black" stroke="none" /></g>
        </mask>
    </defs><path d="M7.78388 5H5C3.89543 5 3 5.89543 3 7V17C3 18.1046 3.89543 19 5 19H19C20.1046 19 21 18.1046 21 17V9.875C21 8.77043 20.1046 7.875 19 7.875H12.7161C12.2531 7.875 11.8044 7.71435 11.4466 7.42045L9.05336 5.45455C8.69558 5.16065 8.2469 5 7.78388 5Z" stroke="#42a5f5" stroke-width="2" fill="#42a5f5" mask="url(#decoupe)"/><path d="M14 14.625V12H16.625M20.125 12H22.75V14.625" stroke="#16A34A" stroke-width="1.7" stroke-linecap="round" stroke-linejoin="round"/> <path d="M14 12L17.8622 15.8622C18.1905 16.1904 18.3749 16.6354 18.375 17.0995M18.375 17.0995V20M18.375 17.0995C18.3751 16.6354 18.5595 16.1904 18.8877 15.8622L22.75 12" stroke="#16A34A" stroke-width="1.7" stroke-linecap="round" stroke-linejoin="round"/></svg>