<svg width="24" height="24" viewBox="0 0 24 24" fill="none" xmlns="http://www.w3.org/2000/svg">
    <defs>
        
        <mask id="decoupe">
            <rect width="100%" height="100%" fill="white" />
            <g stroke="black" stroke-width="2.5"><path vector-effect="non-scaling-stroke" d="M14 18.993C14.0161 19.1892 14.0862 19.3866 14.2692 19.6513C14.4867 19.9656 14.8602 20.1381 15.1329 19.8612C15.3166 19.6742 17.3056 16.2418 18.2641 14.9408C18.2904 14.9035 18.3254 14.8731 18.3661 14.852C18.4069 14.831 18.4521 14.82 18.4981 14.82C18.5441 14.82 18.5894 14.831 18.6301 14.852C18.6709 14.8731 18.7059 14.9035 18.7321 14.9408C19.6906 16.2418 21.6796 19.6742 21.8634 19.8612C22.136 20.1381 22.5095 19.9656 22.727 19.6513C22.9407 19.3421 23 19.1255 23 18.8938C23 18.7361 19.9025 13.0448 19.5905 12.5709C19.2905 12.1155 19.199 12.0163 18.6916 12H18.3046C17.7973 12.0163 17.7058 12.1151 17.4054 12.5709C17.1001 13.0348 14.1238 18.5021 14 18.8767V18.993Z" fill="black" stroke="black"/><circle cx="20" cy="16" r="3" fill="black" stroke="none" /></g>
        </mask>
    </defs><path d="M7.78388 5H5C3.89543 5 3 5.89543 3 7V17C3 18.1046 3.89543 19 5 19H19C20.1046 19 21 18.1046 21 17V9.875C21 8.77043 20.1046 7.875 19 7.875H12.7161C12.2531 7.875 11.8044 7.71435 11.4466 7.42045L9.05336 5.45455C8.69558 5.16065 8.2469 5 7.78388 5Z" stroke="#42a5f5" stroke-width="2" fill="#42a5f5" mask="url(#decoupe)"/><path d="M14 18.993C14.0161 19.1892 14.0862 19.3866 14.2692 19.6513C14.4867 19.9656 14.8602 20.1381 15.1329 19.8612C15.3166 19.6742 17.3056 16.2418 18.2641 14.9408C18.2904 14.9035 18.3254 14.8731 18.3661 14.852C18.4069 14.831 18.4521 14.82 18.4981 14.82C18.5441 14.82 18.5894 14.831 18.6301 14.852C18.6709 14.8731 18.7059 14.9035 18.7321 14.9408C19.6906 16.2418 21.6796 19.6742 21.8634 19.8612C22.136 20.1381 22.5095 19.9656 22.727 19.6513C22.9407 19.3421 23 19.1255 23 18.8938C23 18.7361 19.9025 13.0448 19.5905 12.5709C19.2905 12.1155 19.199 12.0163 18.6916 12H18.3046C17.7973 12.0163 17.7058 12.1151 17.4054 12.5709C17.1001 13.0348 14.1238 18.5021 14 18.8767V18.993Z" fill="#A1A1AA"/></svg>