<svg width="24" height="24" viewBox="0 0 24 24" fill="none" xmlns="http://www.w3.org/2000/svg">
    <defs>
        
        <mask id="decoupe">
            <rect width="100%" height="100%" fill="white" />
            <g stroke="black" stroke-width="2.5"><rect vector-effect="non-scaling-stroke" x="14.875" y="11.875" width="8.25" height="8.25" rx="1.625" stroke="black" stroke-width="4" stroke-linejoin="round"/> <circle vector-effect="non-scaling-stroke" cx="20.5" cy="14.5" r="1" fill="black" stroke="black"/> <path vector-effect="non-scaling-stroke" d="M15.5 19.5L18.2929 16.7071C18.6834 16.3166 19.3166 16.3166 19.7071 16.7071L22.5 19.5" stroke="black" stroke-width="4" stroke-linejoin="round"/><circle cx="20" cy="16" r="3" fill="black" stroke="none" /></g>
        </mask>
    </defs><path d="M7.78388 5H5C3.89543 5 3 5.89543 3 7V17C3 18.1046 3.89543 19 5 19H19C20.1046 19 21 18.1046 21 17V9.875C21 8.77043 20.1046 7.875 19 7.875H12.7161C12.2531 7.875 11.8044 7.71435 11.4466 7.42045L9.05336 5.45455C8.69558 5.16065 8.2469 5 7.78388 5Z" stroke="#42a5f5" stroke-width="2" fill="#42a5f5" mask="url(#decoupe)"/><rect x="14.875" y="11.875" width="8.25" height="8.25" rx="1.625" stroke="#C084FC" stroke-width="1.25" stroke-linejoin="round"/> <circle cx="20.5" cy="14.5" r="1" fill="#C084FC"/> <path d="M15.5 19.5L18.2929 16.7071C18.6834 16.3166 19.3166 16.3166 19.7071 16.7071L22.5 19.5" stroke="#C084FC" stroke-width="1.25" stroke-linejoin="round"/></svg>