<svg width="24" height="24" viewBox="0 0 24 24" fill="none" xmlns="http://www.w3.org/2000/svg">
    <defs>
        
        <mask id="decoupe">
            <rect width="100%" height="100%" fill="white" />
            <g stroke="black" stroke-width="2.5"><path vector-effect="non-scaling-stroke" d="M23.1506 14.3298C23.0865 14.3796 21.9544 15.0175 21.9544 16.4358C21.9544 18.0764 23.3949 18.6568 23.438 18.6712C23.4314 18.7066 23.2092 19.466 22.6786 20.2399C22.2054 20.9209 21.7112 21.6008 20.9595 21.6008C20.2077 21.6008 20.0143 21.1641 19.1464 21.1641C18.3007 21.1641 18 21.6152 17.3124 21.6152C16.6248 21.6152 16.145 20.985 15.5933 20.2112C14.9543 19.3024 14.438 17.8907 14.438 16.5508C14.438 14.4017 15.8354 13.2619 17.2107 13.2619C17.9414 13.2619 18.5506 13.7417 19.0094 13.7417C19.446 13.7417 20.127 13.2332 20.9584 13.2332C21.2735 13.2332 22.4055 13.2619 23.1506 14.3298ZM20.5637 12.3233C20.9075 11.9154 21.1507 11.3494 21.1507 10.7833C21.1507 10.7048 21.1441 10.6252 21.1297 10.5611C20.5703 10.5821 19.9048 10.9337 19.5035 11.3991C19.1884 11.7573 18.8944 12.3233 18.8944 12.8971C18.8944 12.9833 18.9088 13.0695 18.9154 13.0972C18.9508 13.1038 19.0082 13.1115 19.0657 13.1115C19.5676 13.1115 20.1989 12.7755 20.5637 12.3233Z" fill="black" stroke="black"/><circle cx="20" cy="16" r="3" fill="black" stroke="none" /></g>
        </mask>
    </defs><path d="M7.78388 5H5C3.89543 5 3 5.89543 3 7V17C3 18.1046 3.89543 19 5 19H19C20.1046 19 21 18.1046 21 17V9.875C21 8.77043 20.1046 7.875 19 7.875H12.7161C12.2531 7.875 11.8044 7.71435 11.4466 7.42045L9.05336 5.45455C8.69558 5.16065 8.2469 5 7.78388 5Z" stroke="#42a5f5" stroke-width="2" fill="#42a5f5" mask="url(#decoupe)"/><path d="M23.1506 14.3298C23.0865 14.3796 21.9544 15.0175 21.9544 16.4358C21.9544 18.0764 23.3949 18.6568 23.438 18.6712C23.4314 18.7066 23.2092 19.466 22.6786 20.2399C22.2054 20.9209 21.7112 21.6008 20.9595 21.6008C20.2077 21.6008 20.0143 21.1641 19.1464 21.1641C18.3007 21.1641 18 21.6152 17.3124 21.6152C16.6248 21.6152 16.145 20.985 15.5933 20.2112C14.9543 19.3024 14.438 17.8907 14.438 16.5508C14.438 14.4017 15.8354 13.2619 17.2107 13.2619C17.9414 13.2619 18.5506 13.7417 19.0094 13.7417C19.446 13.7417 20.127 13.2332 20.9584 13.2332C21.2735 13.2332 22.4055 13.2619 23.1506 14.3298ZM20.5637 12.3233C20.9075 11.9154 21.1507 11.3494 21.1507 10.7833C21.1507 10.7048 21.1441 10.6252 21.1297 10.5611C20.5703 10.5821 19.9048 10.9337 19.5035 11.3991C19.1884 11.7573 18.8944 12.3233 18.8944 12.8971C18.8944 12.9833 18.9088 13.0695 18.9154 13.0972C18.9508 13.1038 19.0082 13.1115 19.0657 13.1115C19.5676 13.1115 20.1989 12.7755 20.5637 12.3233Z" fill="#A1A1AA"/></svg>