<svg width="24" height="24" viewBox="0 0 24 24" fill="none" xmlns="http://www.w3.org/2000/svg">
    <defs>
         <linearGradient id="paint0_linear_24689_562" x1="18.4579" y1="15.8396" x2="21.6965" y2="17.3064" gradientUnits="userSpaceOnUse"> <stop stop-color="#249361"/> <stop offset="1" stop-color="#3ECF8E"/> </linearGradient> <linearGradient id="paint1_linear_24689_562" x1="16.9863" y1="13.9738" x2="18.3263" y2="16.698" gradientUnits="userSpaceOnUse"> <stop stop-opacity="0.2"/> <stop offset="1" stop-opacity="0"/> </linearGradient> 
        <mask id="decoupe">
            <rect width="100%" height="100%" fill="white" />
            <g stroke="black" stroke-width="2.5"><path vector-effect="non-scaling-stroke" d="M19.2621 20.0692C19.0259 20.3446 18.5463 20.1945 18.5405 19.8427L18.4577 14.6989H22.1922C22.8688 14.6989 23.2458 15.4233 22.8252 15.9123L19.2621 20.0692Z" fill="black" stroke="black"/> <path vector-effect="non-scaling-stroke" d="M19.2621 20.0692C19.0259 20.3446 18.5463 20.1945 18.5405 19.8427L18.4577 14.6989H22.1922C22.8688 14.6989 23.2458 15.4233 22.8252 15.9123L19.2621 20.0692Z" fill="black" stroke="black"/> <path vector-effect="non-scaling-stroke" d="M17.7433 11.794C17.9795 11.5186 18.4577 11.6691 18.4635 12.0209L18.4998 17.1644H14.8118C14.1352 17.1644 13.7582 16.4402 14.1788 15.9509L17.7433 11.794Z" fill="black" stroke="black"/>  <circle cx="20" cy="16" r="3" fill="black" stroke="none" /></g>
        </mask>
    </defs><path d="M7.78388 5H5C3.89543 5 3 5.89543 3 7V17C3 18.1046 3.89543 19 5 19H19C20.1046 19 21 18.1046 21 17V9.875C21 8.77043 20.1046 7.875 19 7.875H12.7161C12.2531 7.875 11.8044 7.71435 11.4466 7.42045L9.05336 5.45455C8.69558 5.16065 8.2469 5 7.78388 5Z" stroke="#42a5f5" stroke-width="2" fill="#42a5f5" mask="url(#decoupe)"/><path d="M19.2621 20.0692C19.0259 20.3446 18.5463 20.1945 18.5405 19.8427L18.4577 14.6989H22.1922C22.8688 14.6989 23.2458 15.4233 22.8252 15.9123L19.2621 20.0692Z" fill="url(#paint0_linear_24689_562)"/> <path d="M19.2621 20.0692C19.0259 20.3446 18.5463 20.1945 18.5405 19.8427L18.4577 14.6989H22.1922C22.8688 14.6989 23.2458 15.4233 22.8252 15.9123L19.2621 20.0692Z" fill="url(#paint1_linear_24689_562)"/> <path d="M17.7433 11.794C17.9795 11.5186 18.4577 11.6691 18.4635 12.0209L18.4998 17.1644H14.8118C14.1352 17.1644 13.7582 16.4402 14.1788 15.9509L17.7433 11.794Z" fill="#3ECF8E"/>  </svg>