<svg width="24" height="24" viewBox="0 0 24 24" fill="none" xmlns="http://www.w3.org/2000/svg">
    <defs>
        
        <mask id="decoupe">
            <rect width="100%" height="100%" fill="white" />
            <g stroke="black" stroke-width="2.5"><path vector-effect="non-scaling-stroke" d="M23.8535 11.8535C23.9446 11.7592 23.995 11.6329 23.9938 11.5018C23.9927 11.3707 23.9401 11.2453 23.8474 11.1526C23.7547 11.0598 23.6293 11.0073 23.4982 11.0061C23.3671 11.005 23.2408 11.0554 23.1465 11.1465L22.248 12.045C21.8405 11.7916 21.3593 11.6836 20.8826 11.7384C20.406 11.7933 19.9618 12.0077 19.6225 12.347L19.0885 12.8815C18.9245 13.0455 18.8324 13.268 18.8324 13.5C18.8324 13.7319 18.9245 13.9544 19.0885 14.1185L20.881 15.9115C20.9623 15.9927 21.0587 16.0572 21.1649 16.1012C21.2711 16.1451 21.3848 16.1678 21.4998 16.1678C21.6147 16.1678 21.7285 16.1451 21.8346 16.1012C21.9408 16.0572 22.0373 15.9927 22.1185 15.9115L22.6525 15.3775C22.9917 15.0382 23.2062 14.5942 23.2611 14.1177C23.316 13.6411 23.2081 13.16 22.955 12.7525L23.8535 11.8535ZM18.3535 15.8535C18.4446 15.7592 18.495 15.6329 18.4938 15.5018C18.4927 15.3707 18.4401 15.2453 18.3474 15.1526C18.2547 15.0598 18.1293 15.0073 17.9982 15.0061C17.8671 15.005 17.7408 15.0554 17.6465 15.1465L16.9115 15.8815L16.765 15.735C16.6947 15.6647 16.5994 15.6253 16.5 15.6253C16.4006 15.6253 16.3053 15.6647 16.235 15.735L15.3475 16.6225C15.0083 16.9617 14.7938 17.4057 14.7389 17.8823C14.684 18.3588 14.7919 18.84 15.045 19.2475L14.1465 20.1465C14.0988 20.1926 14.0607 20.2478 14.0345 20.3088C14.0083 20.3698 13.9945 20.4354 13.9939 20.5018C13.9933 20.5681 14.006 20.634 14.0311 20.6954C14.0562 20.7569 14.0934 20.8127 14.1403 20.8597C14.1873 20.9066 14.2431 20.9437 14.3045 20.9689C14.366 20.994 14.4318 21.0067 14.4982 21.0061C14.5646 21.0055 14.6302 20.9917 14.6912 20.9655C14.7522 20.9393 14.8074 20.9012 14.8535 20.8535L15.7525 19.955C16.16 20.2081 16.6411 20.316 17.1177 20.261C17.5943 20.2061 18.0383 19.9916 18.3775 19.6525L19.265 18.765C19.3352 18.6946 19.3747 18.5993 19.3747 18.5C19.3747 18.4006 19.3352 18.3053 19.265 18.235L19.1185 18.0885L19.8535 17.3535C19.9446 17.2592 19.995 17.1329 19.9938 17.0018C19.9927 16.8707 19.9401 16.7453 19.8474 16.6526C19.7547 16.5598 19.6293 16.5073 19.4982 16.5061C19.3671 16.505 19.2408 16.5554 19.1465 16.6465L18.4115 17.3815L17.6185 16.5885L18.3535 15.8535Z" fill="black" stroke="black"/><circle cx="20" cy="16" r="3" fill="black" stroke="none" /></g>
        </mask>
    </defs><path d="M7.78388 5H5C3.89543 5 3 5.89543 3 7V17C3 18.1046 3.89543 19 5 19H19C20.1046 19 21 18.1046 21 17V9.875C21 8.77043 20.1046 7.875 19 7.875H12.7161C12.2531 7.875 11.8044 7.71435 11.4466 7.42045L9.05336 5.45455C8.69558 5.16065 8.2469 5 7.78388 5Z" stroke="#42a5f5" stroke-width="2" fill="#42a5f5" mask="url(#decoupe)"/><path d="M23.8535 11.8535C23.9446 11.7592 23.995 11.6329 23.9938 11.5018C23.9927 11.3707 23.9401 11.2453 23.8474 11.1526C23.7547 11.0598 23.6293 11.0073 23.4982 11.0061C23.3671 11.005 23.2408 11.0554 23.1465 11.1465L22.248 12.045C21.8405 11.7916 21.3593 11.6836 20.8826 11.7384C20.406 11.7933 19.9618 12.0077 19.6225 12.347L19.0885 12.8815C18.9245 13.0455 18.8324 13.268 18.8324 13.5C18.8324 13.7319 18.9245 13.9544 19.0885 14.1185L20.881 15.9115C20.9623 15.9927 21.0587 16.0572 21.1649 16.1012C21.2711 16.1451 21.3848 16.1678 21.4998 16.1678C21.6147 16.1678 21.7285 16.1451 21.8346 16.1012C21.9408 16.0572 22.0373 15.9927 22.1185 15.9115L22.6525 15.3775C22.9917 15.0382 23.2062 14.5942 23.2611 14.1177C23.316 13.6411 23.2081 13.16 22.955 12.7525L23.8535 11.8535ZM18.3535 15.8535C18.4446 15.7592 18.495 15.6329 18.4938 15.5018C18.4927 15.3707 18.4401 15.2453 18.3474 15.1526C18.2547 15.0598 18.1293 15.0073 17.9982 15.0061C17.8671 15.005 17.7408 15.0554 17.6465 15.1465L16.9115 15.8815L16.765 15.735C16.6947 15.6647 16.5994 15.6253 16.5 15.6253C16.4006 15.6253 16.3053 15.6647 16.235 15.735L15.3475 16.6225C15.0083 16.9617 14.7938 17.4057 14.7389 17.8823C14.684 18.3588 14.7919 18.84 15.045 19.2475L14.1465 20.1465C14.0988 20.1926 14.0607 20.2478 14.0345 20.3088C14.0083 20.3698 13.9945 20.4354 13.9939 20.5018C13.9933 20.5681 14.006 20.634 14.0311 20.6954C14.0562 20.7569 14.0934 20.8127 14.1403 20.8597C14.1873 20.9066 14.2431 20.9437 14.3045 20.9689C14.366 20.994 14.4318 21.0067 14.4982 21.0061C14.5646 21.0055 14.6302 20.9917 14.6912 20.9655C14.7522 20.9393 14.8074 20.9012 14.8535 20.8535L15.7525 19.955C16.16 20.2081 16.6411 20.316 17.1177 20.261C17.5943 20.2061 18.0383 19.9916 18.3775 19.6525L19.265 18.765C19.3352 18.6946 19.3747 18.5993 19.3747 18.5C19.3747 18.4006 19.3352 18.3053 19.265 18.235L19.1185 18.0885L19.8535 17.3535C19.9446 17.2592 19.995 17.1329 19.9938 17.0018C19.9927 16.8707 19.9401 16.7453 19.8474 16.6526C19.7547 16.5598 19.6293 16.5073 19.4982 16.5061C19.3671 16.505 19.2408 16.5554 19.1465 16.6465L18.4115 17.3815L17.6185 16.5885L18.3535 15.8535Z" fill="#F59E0B"/></svg>