<svg width="24" height="24" viewBox="0 0 24 24" fill="none" xmlns="http://www.w3.org/2000/svg">
<path d="M21.8028 10.5301C21.7485 10.4862 21.2421 10.0959 20.1743 10.0959C19.8923 10.0971 19.6109 10.1218 19.3329 10.1697C19.1262 8.72368 17.955 8.01866 17.9025 7.98703L17.6157 7.81824L17.4271 8.09603C17.1909 8.4692 17.0185 8.88056 16.9173 9.31264C16.7261 10.1381 16.8424 10.9134 17.2531 11.5762C16.7571 11.8584 15.9614 11.9278 15.8004 11.934H2.62605C2.28194 11.9344 2.00272 12.2183 2.00084 12.5695C1.98547 13.7476 2.18101 14.9187 2.57783 16.0251C3.03166 17.2399 3.70683 18.1348 4.58524 18.6824C5.56956 19.2978 7.16877 19.6494 8.98155 19.6494C9.80048 19.652 10.6179 19.5764 11.423 19.4235C12.5422 19.2137 13.6192 18.8144 14.6094 18.242C15.4252 17.7597 16.1595 17.1462 16.7838 16.425C17.8276 15.219 18.4494 13.8758 18.9118 12.682H19.0961C20.2389 12.682 20.9416 12.2152 21.3291 11.8241C21.5867 11.5746 21.7877 11.2707 21.9182 10.9336L22 10.6892L21.8028 10.5301Z" fill="#A1A1AA"/>
<path d="M3.84723 11.5402H5.61264C5.69778 11.5402 5.76678 11.4697 5.76678 11.3828V9.77764C5.76726 9.69073 5.69862 9.6199 5.61351 9.61942C5.61323 9.61942 5.61292 9.61942 5.61264 9.61942H3.84723C3.76208 9.61942 3.69308 9.68987 3.69308 9.77675V9.77764V11.3828C3.69308 11.4697 3.76208 11.5402 3.84723 11.5402V11.5402Z" fill="#A1A1AA"/>
<path d="M6.28004 11.5402H8.04545C8.1306 11.5402 8.19959 11.4697 8.19959 11.3828V9.77764C8.20007 9.69073 8.13144 9.6199 8.04629 9.61942C8.04601 9.61942 8.0457 9.61942 8.04542 9.61942H6.28001C6.19439 9.61942 6.125 9.69024 6.125 9.77764V11.3828C6.1255 11.4698 6.19475 11.5402 6.28004 11.5402" fill="#A1A1AA"/>
<path d="M8.74987 11.5402H10.5153C10.6004 11.5402 10.6694 11.4697 10.6694 11.3828V9.77764C10.6699 9.69073 10.6013 9.6199 10.5161 9.61942C10.5158 9.61942 10.5155 9.61942 10.5153 9.61942H8.74984C8.6647 9.61942 8.5957 9.68987 8.5957 9.77675V9.77764V11.3828C8.59573 11.4697 8.66475 11.5402 8.74987 11.5402V11.5402Z" fill="#A1A1AA"/>
<path d="M11.1905 11.5402H12.9559C13.0412 11.5402 13.1104 11.4699 13.1109 11.3828V9.77764C13.1109 9.69024 13.0415 9.61942 12.9559 9.61942H11.1905C11.1053 9.61942 11.0363 9.68987 11.0363 9.77675V9.77764V11.3828C11.0363 11.4697 11.1053 11.5402 11.1905 11.5402V11.5402Z" fill="#A1A1AA"/>
<path d="M6.28001 9.23086H8.04542C8.13068 9.23037 8.19956 9.15966 8.19956 9.07263V7.46749C8.19956 7.38058 8.13054 7.31015 8.04542 7.31015H6.28001C6.19475 7.31015 6.12548 7.38043 6.125 7.46749V9.07263C6.12548 9.15983 6.19458 9.23037 6.28001 9.23086Z" fill="#A1A1AA"/>
<path d="M8.74987 9.23086H10.5153C10.6005 9.23037 10.6694 9.15966 10.6694 9.07263V7.46749C10.6694 7.38058 10.6004 7.31015 10.5153 7.31015H8.74987C8.66473 7.31015 8.59573 7.38061 8.59573 7.46749V9.07263C8.59573 9.15966 8.66462 9.23037 8.74987 9.23086Z" fill="#A1A1AA"/>
<path d="M11.1905 9.23086H12.9559C13.0413 9.23037 13.1104 9.15983 13.1109 9.07263V7.46749C13.1104 7.38043 13.0412 7.31015 12.9559 7.31015H11.1905C11.1053 7.31015 11.0363 7.38061 11.0363 7.46749V9.07263C11.0363 9.15966 11.1052 9.23037 11.1905 9.23086Z" fill="#A1A1AA"/>
<path d="M11.1905 6.92074H12.9559C13.0412 6.92074 13.1104 6.85042 13.1109 6.7634V5.15734C13.1104 5.07028 13.0412 5 12.9559 5H11.1905C11.1053 5 11.0363 5.07043 11.0363 5.15734V6.76337C11.0363 6.85028 11.1053 6.92074 11.1905 6.92074Z" fill="#A1A1AA"/>
<path d="M13.6526 11.5402H15.418C15.5033 11.5402 15.5725 11.4699 15.573 11.3828V9.77764C15.573 9.69024 15.5036 9.61942 15.418 9.61942H13.6526C13.5675 9.61942 13.4984 9.68987 13.4984 9.77675V9.77764V11.3828C13.4984 11.4697 13.5675 11.5402 13.6526 11.5402" fill="#A1A1AA"/>

<path fill-rule="evenodd" clip-rule="evenodd" d="M23.1015 12.1104L22.0194 13.1928C23.1253 14.1173 23.8301 15.5065 23.8301 17.0572V18.0264C23.8301 18.3278 23.5857 18.572 23.2844 18.572H14.4032C14.1852 18.572 13.7586 18.572 13.7586 18.0264V17.0574C13.7586 15.5065 14.4634 14.1173 15.5695 13.1928L14.4872 12.1104C14.2742 11.8974 14.2742 11.5519 14.4872 11.3387C14.7003 11.1256 15.0458 11.1256 15.259 11.3387L16.497 12.5767C17.1862 12.2219 17.9674 12.0214 18.7943 12.0214C19.6213 12.0214 20.4025 12.2219 21.0917 12.5767L22.3297 11.3387C22.543 11.1256 22.8884 11.1256 23.1015 11.3387C23.3145 11.5519 23.3145 11.8974 23.1015 12.1104ZM14.8499 17.0572V17.4806H22.7388V17.0572C22.7388 14.8822 20.9693 13.1128 18.7943 13.1128C16.6194 13.1128 14.8499 14.8822 14.8499 17.0572ZM17.3395 15.944C17.5957 15.944 17.8033 15.7365 17.8033 15.4803C17.8033 15.2239 17.5957 15.0163 17.3395 15.0163C17.0832 15.0163 16.8756 15.2239 16.8756 15.4803C16.8756 15.7365 17.0832 15.944 17.3395 15.944ZM20.7862 15.4059C20.7862 15.6623 20.5784 15.8699 20.3223 15.8699C20.0661 15.8699 19.8583 15.6623 19.8583 15.4059C19.8583 15.1497 20.0661 14.9422 20.3223 14.9422C20.5784 14.9422 20.7862 15.1497 20.7862 15.4059Z" fill="#4ADE80"/>
<path d="M22.0194 13.1928L21.9133 13.0868C21.8835 13.1166 21.8676 13.1575 21.8695 13.1995C21.8714 13.2416 21.8908 13.2809 21.9231 13.3079L22.0194 13.1928ZM23.1015 12.1104L22.9955 12.0044L22.9955 12.0044L23.1015 12.1104ZM15.5695 13.1928L15.6657 13.3079C15.6981 13.2809 15.7175 13.2416 15.7194 13.1995C15.7213 13.1575 15.7054 13.1165 15.6756 13.0868L15.5695 13.1928ZM14.4872 12.1104L14.3811 12.2165L14.3811 12.2165L14.4872 12.1104ZM14.4872 11.3387L14.3811 11.2326L14.381 11.2327L14.4872 11.3387ZM15.259 11.3387L15.3651 11.2326L15.3651 11.2326L15.259 11.3387ZM16.497 12.5767L16.391 12.6827C16.4371 12.7288 16.5077 12.7399 16.5657 12.71L16.497 12.5767ZM21.0917 12.5767L21.023 12.71C21.081 12.7399 21.1516 12.7288 21.1977 12.6827L21.0917 12.5767ZM22.3297 11.3387L22.2236 11.2326L22.2236 11.2326L22.3297 11.3387ZM23.1015 11.3387L23.2076 11.2327L23.2076 11.2326L23.1015 11.3387ZM14.8499 17.4806H14.6999C14.6999 17.5634 14.7671 17.6306 14.8499 17.6306V17.4806ZM22.7388 17.4806V17.6306C22.8216 17.6306 22.8888 17.5634 22.8888 17.4806H22.7388ZM22.1254 13.2989L23.2076 12.2165L22.9955 12.0044L21.9133 13.0868L22.1254 13.2989ZM23.9801 17.0572C23.9801 15.46 23.254 14.0294 22.1156 13.0777L21.9231 13.3079C22.9966 14.2052 23.6801 15.5529 23.6801 17.0572H23.9801ZM23.9801 18.0264V17.0572H23.6801V18.0264H23.9801ZM23.2844 18.722C23.6685 18.722 23.9801 18.4107 23.9801 18.0264H23.6801C23.6801 18.2449 23.5029 18.422 23.2844 18.422V18.722ZM14.4032 18.722H23.2844V18.422H14.4032V18.722ZM13.6086 18.0264C13.6086 18.1821 13.6391 18.3113 13.6981 18.4157C13.7577 18.5211 13.8412 18.5917 13.9311 18.6375C14.1021 18.7246 14.2999 18.722 14.4032 18.722V18.422C14.2885 18.422 14.164 18.4195 14.0672 18.3702C14.0232 18.3477 13.9864 18.316 13.9592 18.268C13.9314 18.2188 13.9086 18.1434 13.9086 18.0264H13.6086ZM13.6086 17.0574V18.0264H13.9086V17.0574H13.6086ZM15.4734 13.0777C14.3347 14.0294 13.6086 15.46 13.6086 17.0574H13.9086C13.9086 15.5529 14.5921 14.2052 15.6657 13.3079L15.4734 13.0777ZM14.3811 12.2165L15.4635 13.2989L15.6756 13.0868L14.5932 12.0044L14.3811 12.2165ZM14.381 11.2327C14.1096 11.5044 14.1095 11.9449 14.3811 12.2165L14.5932 12.0044C14.4388 11.85 14.4388 11.5994 14.5933 11.4447L14.381 11.2327ZM15.3651 11.2326C15.0933 10.9609 14.6528 10.9609 14.3811 11.2326L14.5932 11.4447C14.7478 11.2902 14.9983 11.2902 15.153 11.4448L15.3651 11.2326ZM16.6031 12.4706L15.3651 11.2326L15.153 11.4447L16.391 12.6827L16.6031 12.4706ZM18.7943 11.8714C17.9429 11.8714 17.1382 12.0779 16.4284 12.4433L16.5657 12.71C17.2342 12.3659 17.9919 12.1714 18.7943 12.1714V11.8714ZM21.1603 12.4433C20.4504 12.0779 19.6458 11.8714 18.7943 11.8714V12.1714C19.5968 12.1714 20.3545 12.3659 21.023 12.71L21.1603 12.4433ZM22.2236 11.2326L20.9856 12.4706L21.1977 12.6827L22.4357 11.4447L22.2236 11.2326ZM23.2076 11.2326C22.9359 10.9609 22.4955 10.961 22.2236 11.2326L22.4357 11.4448C22.5904 11.2902 22.841 11.2902 22.9955 11.4447L23.2076 11.2326ZM23.2076 12.2165C23.4792 11.9449 23.4791 11.5044 23.2076 11.2327L22.9954 11.4447C23.1499 11.5994 23.1499 11.85 22.9955 12.0044L23.2076 12.2165ZM14.9999 17.4806V17.0572H14.6999V17.4806H14.9999ZM22.7388 17.3306H14.8499V17.6306H22.7388V17.3306ZM22.5888 17.0572V17.4806H22.8888V17.0572H22.5888ZM18.7943 13.2628C20.8864 13.2628 22.5888 14.9651 22.5888 17.0572H22.8888C22.8888 14.7994 21.0521 12.9628 18.7943 12.9628V13.2628ZM14.9999 17.0572C14.9999 14.9651 16.7022 13.2628 18.7943 13.2628V12.9628C16.5366 12.9628 14.6999 14.7994 14.6999 17.0572H14.9999ZM17.6533 15.4803C17.6533 15.6536 17.5129 15.794 17.3395 15.794V16.094C17.6786 16.094 17.9533 15.8193 17.9533 15.4803H17.6533ZM17.3395 15.1663C17.5129 15.1663 17.6533 15.3067 17.6533 15.4803H17.9533C17.9533 15.1411 17.6786 14.8663 17.3395 14.8663V15.1663ZM17.0256 15.4803C17.0256 15.3067 17.1661 15.1663 17.3395 15.1663V14.8663C17.0003 14.8663 16.7256 15.1411 16.7256 15.4803H17.0256ZM17.3395 15.794C17.166 15.794 17.0256 15.6536 17.0256 15.4803H16.7256C16.7256 15.8193 17.0004 16.094 17.3395 16.094V15.794ZM20.3223 16.0199C20.6612 16.0199 20.9362 15.7452 20.9362 15.4059H20.6362C20.6362 15.5794 20.4956 15.7199 20.3223 15.7199V16.0199ZM19.7083 15.4059C19.7083 15.7452 19.9833 16.0199 20.3223 16.0199V15.7199C20.1489 15.7199 20.0083 15.5794 20.0083 15.4059H19.7083ZM20.3223 14.7922C19.9833 14.7922 19.7083 15.0668 19.7083 15.4059H20.0083C20.0083 15.2327 20.1488 15.0922 20.3223 15.0922V14.7922ZM20.9362 15.4059C20.9362 15.0668 20.6612 14.7922 20.3223 14.7922V15.0922C20.4957 15.0922 20.6362 15.2327 20.6362 15.4059H20.9362Z" fill="#4ADE80"/>
</svg>
