<svg width="24" height="24" viewBox="0 0 24 24" fill="none" xmlns="http://www.w3.org/2000/svg">
    <defs>
        
        <mask id="decoupe">
            <rect width="100%" height="100%" fill="white" />
            <g stroke="black" stroke-width="2.5"><path vector-effect="non-scaling-stroke" d="M18.8412 12C18.2713 12 17.8095 12.4618 17.8095 13.0318V13.6508H16.1587C15.7026 13.6508 15.3333 14.0202 15.3333 14.4762V15.7143C15.3333 15.9421 15.5182 16.127 15.746 16.127H15.8935C16.4333 16.127 16.9244 16.5154 16.9784 17.0524C17.0403 17.6702 16.5574 18.1905 15.9523 18.1905H15.746C15.5182 18.1905 15.3333 18.3754 15.3333 18.6032V19.8413C15.3333 20.2974 15.7026 20.6667 16.1587 20.6667H17.3968C17.6246 20.6667 17.8095 20.4818 17.8095 20.254V20.1065C17.8095 19.5667 18.1979 19.0756 18.7348 19.0216C19.3527 18.9597 19.873 19.4426 19.873 20.0477V20.254C19.873 20.4818 20.0579 20.6667 20.2857 20.6667H21.5238C21.9798 20.6667 22.3492 20.2974 22.3492 19.8413V18.1905H22.9682C23.5382 18.1905 24 17.7287 24 17.1588C24 16.5888 23.5382 16.127 22.9682 16.127H22.3492V14.4762C22.3492 14.0202 21.9798 13.6508 21.5238 13.6508H19.873V13.0318C19.873 12.4618 19.4112 12 18.8412 12Z" fill="black" stroke="black"/><circle cx="20" cy="16" r="3" fill="black" stroke="none" /></g>
        </mask>
    </defs><path d="M7.78388 5H5C3.89543 5 3 5.89543 3 7V17C3 18.1046 3.89543 19 5 19H19C20.1046 19 21 18.1046 21 17V9.875C21 8.77043 20.1046 7.875 19 7.875H12.7161C12.2531 7.875 11.8044 7.71435 11.4466 7.42045L9.05336 5.45455C8.69558 5.16065 8.2469 5 7.78388 5Z" stroke="#42a5f5" stroke-width="2" fill="#42a5f5" mask="url(#decoupe)"/><path d="M18.8412 12C18.2713 12 17.8095 12.4618 17.8095 13.0318V13.6508H16.1587C15.7026 13.6508 15.3333 14.0202 15.3333 14.4762V15.7143C15.3333 15.9421 15.5182 16.127 15.746 16.127H15.8935C16.4333 16.127 16.9244 16.5154 16.9784 17.0524C17.0403 17.6702 16.5574 18.1905 15.9523 18.1905H15.746C15.5182 18.1905 15.3333 18.3754 15.3333 18.6032V19.8413C15.3333 20.2974 15.7026 20.6667 16.1587 20.6667H17.3968C17.6246 20.6667 17.8095 20.4818 17.8095 20.254V20.1065C17.8095 19.5667 18.1979 19.0756 18.7348 19.0216C19.3527 18.9597 19.873 19.4426 19.873 20.0477V20.254C19.873 20.4818 20.0579 20.6667 20.2857 20.6667H21.5238C21.9798 20.6667 22.3492 20.2974 22.3492 19.8413V18.1905H22.9682C23.5382 18.1905 24 17.7287 24 17.1588C24 16.5888 23.5382 16.127 22.9682 16.127H22.3492V14.4762C22.3492 14.0202 21.9798 13.6508 21.5238 13.6508H19.873V13.0318C19.873 12.4618 19.4112 12 18.8412 12Z" fill="#0EA5E9"/></svg>