<svg width="24" height="24" viewBox="0 0 24 24" fill="none" xmlns="http://www.w3.org/2000/svg">
    <defs>
        
        <mask id="decoupe">
            <rect width="100%" height="100%" fill="white" />
            <g stroke="black" stroke-width="2.5"><path vector-effect="non-scaling-stroke" fill-rule="evenodd" clip-rule="evenodd" d="M19 14.8889C18.3864 14.8889 17.8889 15.3864 17.8889 16C17.8889 16.6136 18.3864 17.1111 19 17.1111C19.6136 17.1111 20.1111 16.6136 20.1111 16C20.1111 15.3864 19.6136 14.8889 19 14.8889ZM16.7778 16C16.7778 14.7727 17.7727 13.7778 19 13.7778C20.2273 13.7778 21.2222 14.7727 21.2222 16C21.2222 17.2273 20.2273 18.2222 19 18.2222C17.7727 18.2222 16.7778 17.2273 16.7778 16Z" fill="black" stroke="black"/> <path vector-effect="non-scaling-stroke" fill-rule="evenodd" clip-rule="evenodd" d="M19 12.1111C16.8522 12.1111 15.1111 13.8522 15.1111 16C15.1111 18.1478 16.8522 19.8889 19 19.8889C21.1478 19.8889 22.8889 18.1478 22.8889 16C22.8889 13.8522 21.1478 12.1111 19 12.1111ZM14 16C14 13.2386 16.2386 11 19 11C21.7614 11 24 13.2386 24 16C24 18.7614 21.7614 21 19 21C16.2386 21 14 18.7614 14 16Z" fill="black" stroke="black"/><circle cx="20" cy="16" r="3" fill="black" stroke="none" /></g>
        </mask>
    </defs><path d="M7.78388 5H5C3.89543 5 3 5.89543 3 7V17C3 18.1046 3.89543 19 5 19H19C20.1046 19 21 18.1046 21 17V9.875C21 8.77043 20.1046 7.875 19 7.875H12.7161C12.2531 7.875 11.8044 7.71435 11.4466 7.42045L9.05336 5.45455C8.69558 5.16065 8.2469 5 7.78388 5Z" stroke="#42a5f5" stroke-width="2" fill="#42a5f5" mask="url(#decoupe)"/><path fill-rule="evenodd" clip-rule="evenodd" d="M19 14.8889C18.3864 14.8889 17.8889 15.3864 17.8889 16C17.8889 16.6136 18.3864 17.1111 19 17.1111C19.6136 17.1111 20.1111 16.6136 20.1111 16C20.1111 15.3864 19.6136 14.8889 19 14.8889ZM16.7778 16C16.7778 14.7727 17.7727 13.7778 19 13.7778C20.2273 13.7778 21.2222 14.7727 21.2222 16C21.2222 17.2273 20.2273 18.2222 19 18.2222C17.7727 18.2222 16.7778 17.2273 16.7778 16Z" fill="#C084FC"/> <path fill-rule="evenodd" clip-rule="evenodd" d="M19 12.1111C16.8522 12.1111 15.1111 13.8522 15.1111 16C15.1111 18.1478 16.8522 19.8889 19 19.8889C21.1478 19.8889 22.8889 18.1478 22.8889 16C22.8889 13.8522 21.1478 12.1111 19 12.1111ZM14 16C14 13.2386 16.2386 11 19 11C21.7614 11 24 13.2386 24 16C24 18.7614 21.7614 21 19 21C16.2386 21 14 18.7614 14 16Z" fill="#C084FC"/></svg>