<svg width="24" height="24" viewBox="0 0 24 24" fill="none" xmlns="http://www.w3.org/2000/svg">
    <defs>
        
        <mask id="decoupe">
            <rect width="100%" height="100%" fill="white" />
            <g stroke="black" stroke-width="2.5"><path vector-effect="non-scaling-stroke" d="M20.4301 13.1146C19.9807 12.6166 19.5937 12.1109 19.5146 12.0058C19.5063 11.9981 19.4938 11.9981 19.4855 12.0058C19.4064 12.1109 19.0194 12.6166 18.57 13.1146C14.7124 17.709 19.1776 20.8096 19.1776 20.8096L19.215 20.8329C19.2483 21.3114 19.3315 22 19.3315 22H19.498H19.6644C19.6644 22 19.7477 21.3153 19.7809 20.8329L19.8184 20.8057C19.8226 20.8057 24.2877 17.709 20.4301 13.1146ZM19.498 20.7395C19.498 20.7395 19.2982 20.58 19.2441 20.4983V20.4906L19.4855 15.4876C19.4855 15.4721 19.5105 15.4721 19.5105 15.4876L19.7518 20.4906V20.4983C19.6977 20.58 19.498 20.7395 19.498 20.7395Z" fill="black" stroke="black"/><circle cx="20" cy="16" r="3" fill="black" stroke="none" /></g>
        </mask>
    </defs><path d="M7.78388 5H5C3.89543 5 3 5.89543 3 7V17C3 18.1046 3.89543 19 5 19H19C20.1046 19 21 18.1046 21 17V9.875C21 8.77043 20.1046 7.875 19 7.875H12.7161C12.2531 7.875 11.8044 7.71435 11.4466 7.42045L9.05336 5.45455C8.69558 5.16065 8.2469 5 7.78388 5Z" stroke="#42a5f5" stroke-width="2" fill="#42a5f5" mask="url(#decoupe)"/><path d="M20.4301 13.1146C19.9807 12.6166 19.5937 12.1109 19.5146 12.0058C19.5063 11.9981 19.4938 11.9981 19.4855 12.0058C19.4064 12.1109 19.0194 12.6166 18.57 13.1146C14.7124 17.709 19.1776 20.8096 19.1776 20.8096L19.215 20.8329C19.2483 21.3114 19.3315 22 19.3315 22H19.498H19.6644C19.6644 22 19.7477 21.3153 19.7809 20.8329L19.8184 20.8057C19.8226 20.8057 24.2877 17.709 20.4301 13.1146ZM19.498 20.7395C19.498 20.7395 19.2982 20.58 19.2441 20.4983V20.4906L19.4855 15.4876C19.4855 15.4721 19.5105 15.4721 19.5105 15.4876L19.7518 20.4906V20.4983C19.6977 20.58 19.498 20.7395 19.498 20.7395Z" fill="#00ED64"/></svg>