<svg width="24" height="24" viewBox="0 0 24 24" fill="none" xmlns="http://www.w3.org/2000/svg">
    <defs>
        
        <mask id="decoupe">
            <rect width="100%" height="100%" fill="white" />
            <g stroke="black" stroke-width="2.5"><path vector-effect="non-scaling-stroke" d="M 18.06 16.937 L 12.889 15.076 M 18.06 16.937 L 23.232 15.083 M 18.06 16.937 L 18.06 23.113 M 14.078 21.777 L 17.442 22.965 C 17.671 23.046 17.786 23.086 17.903 23.102 C 18.007 23.116 18.113 23.116 18.217 23.102 C 18.334 23.086 18.449 23.046 18.678 22.965 L 22.042 21.777 C 22.488 21.62 22.711 21.541 22.875 21.4 C 23.02 21.276 23.133 21.117 23.202 20.939 C 23.28 20.736 23.28 20.5 23.28 20.027 L 23.28 15.898 C 23.28 15.425 23.28 15.189 23.202 14.987 C 23.133 14.808 23.02 14.65 22.875 14.525 C 22.711 14.384 22.488 14.305 22.042 14.148 L 18.678 12.961 C 18.449 12.88 18.334 12.84 18.217 12.824 C 18.113 12.809 18.007 12.809 17.903 12.824 C 17.786 12.84 17.671 12.88 17.442 12.961 L 14.078 14.148 C 13.633 14.305 13.41 14.384 13.245 14.525 C 13.1 14.65 12.988 14.808 12.918 14.987 C 12.84 15.189 12.84 15.425 12.84 15.898 L 12.84 20.027 C 12.84 20.5 12.84 20.736 12.918 20.939 C 12.988 21.117 13.1 21.276 13.245 21.4 C 13.41 21.541 13.633 21.62 14.078 21.777 Z" stroke="black" stroke-linecap="round" stroke-linejoin="round" fill="black"/><circle cx="20" cy="16" r="3" fill="black" stroke="none" /></g>
        </mask>
    </defs><path d="M7.78388 5H5C3.89543 5 3 5.89543 3 7V17C3 18.1046 3.89543 19 5 19H19C20.1046 19 21 18.1046 21 17V9.875C21 8.77043 20.1046 7.875 19 7.875H12.7161C12.2531 7.875 11.8044 7.71435 11.4466 7.42045L9.05336 5.45455C8.69558 5.16065 8.2469 5 7.78388 5Z" stroke="#42a5f5" stroke-width="2" fill="#42a5f5" mask="url(#decoupe)"/><path d="M 18.06 16.937 L 12.889 15.076 M 18.06 16.937 L 23.232 15.083 M 18.06 16.937 L 18.06 23.113 M 14.078 21.777 L 17.442 22.965 C 17.671 23.046 17.786 23.086 17.903 23.102 C 18.007 23.116 18.113 23.116 18.217 23.102 C 18.334 23.086 18.449 23.046 18.678 22.965 L 22.042 21.777 C 22.488 21.62 22.711 21.541 22.875 21.4 C 23.02 21.276 23.133 21.117 23.202 20.939 C 23.28 20.736 23.28 20.5 23.28 20.027 L 23.28 15.898 C 23.28 15.425 23.28 15.189 23.202 14.987 C 23.133 14.808 23.02 14.65 22.875 14.525 C 22.711 14.384 22.488 14.305 22.042 14.148 L 18.678 12.961 C 18.449 12.88 18.334 12.84 18.217 12.824 C 18.113 12.809 18.007 12.809 17.903 12.824 C 17.786 12.84 17.671 12.88 17.442 12.961 L 14.078 14.148 C 13.633 14.305 13.41 14.384 13.245 14.525 C 13.1 14.65 12.988 14.808 12.918 14.987 C 12.84 15.189 12.84 15.425 12.84 15.898 L 12.84 20.027 C 12.84 20.5 12.84 20.736 12.918 20.939 C 12.988 21.117 13.1 21.276 13.245 21.4 C 13.41 21.541 13.633 21.62 14.078 21.777 Z" stroke="#000000" stroke-linecap="round" stroke-linejoin="round" fill="#F59E0B" style=""/></svg>