<svg width="24" height="24" viewBox="0 0 24 24" fill="none" xmlns="http://www.w3.org/2000/svg">
    <defs>
        
        <mask id="decoupe">
            <rect width="100%" height="100%" fill="white" />
            <g stroke="black" stroke-width="2.5"><path vector-effect="non-scaling-stroke" fill-rule="evenodd" clip-rule="evenodd" d="M15.6667 14.8889H21.2223C22.1428 14.8889 22.889 15.6351 22.889 16.5556V19.3334C22.889 20.2539 22.1428 21.0001 21.2223 21.0001H15.6667C14.7462 21.0001 14 20.2539 14 19.3334V16.5556C14 15.6351 14.7462 14.8889 15.6667 14.8889ZM15.6667 16C15.3599 16 15.1111 16.2488 15.1111 16.5556V19.3334C15.1111 19.6403 15.3599 19.889 15.6667 19.889H21.2223C21.5292 19.889 21.7779 19.6403 21.7779 19.3334V16.5556C21.7779 16.2488 21.5292 16 21.2223 16H15.6667Z" fill="black" stroke="black"/> <path vector-effect="non-scaling-stroke" fill-rule="evenodd" clip-rule="evenodd" d="M20.8161 12.0731C20.3081 11.3399 19.3782 11.0417 18.6407 11.0044C17.8625 10.965 16.8626 11.1909 16.214 12.0228C15.9391 12.3755 15.8234 12.8047 15.7638 13.1266C15.6989 13.4769 15.6734 13.8601 15.6679 14.2308C15.662 14.6266 15.6786 15.043 15.7066 15.4443H16.8206C16.739 14.3389 16.7471 13.1463 17.0903 12.706C17.7935 11.804 19.4341 12.0295 19.9029 12.706C20.1375 13.0446 20.1372 14.2875 20.0784 15.4443H21.191C21.2127 15.0005 21.2262 14.5404 21.2214 14.1167C21.2174 13.7643 21.2007 13.4106 21.1594 13.1005C21.1263 12.852 21.0553 12.4182 20.8161 12.0731Z" fill="black" stroke="black"/><circle cx="20" cy="16" r="3" fill="black" stroke="none" /></g>
        </mask>
    </defs><path d="M7.78388 5H5C3.89543 5 3 5.89543 3 7V17C3 18.1046 3.89543 19 5 19H19C20.1046 19 21 18.1046 21 17V9.875C21 8.77043 20.1046 7.875 19 7.875H12.7161C12.2531 7.875 11.8044 7.71435 11.4466 7.42045L9.05336 5.45455C8.69558 5.16065 8.2469 5 7.78388 5Z" stroke="#42a5f5" stroke-width="2" fill="#42a5f5" mask="url(#decoupe)"/><path fill-rule="evenodd" clip-rule="evenodd" d="M15.6667 14.8889H21.2223C22.1428 14.8889 22.889 15.6351 22.889 16.5556V19.3334C22.889 20.2539 22.1428 21.0001 21.2223 21.0001H15.6667C14.7462 21.0001 14 20.2539 14 19.3334V16.5556C14 15.6351 14.7462 14.8889 15.6667 14.8889ZM15.6667 16C15.3599 16 15.1111 16.2488 15.1111 16.5556V19.3334C15.1111 19.6403 15.3599 19.889 15.6667 19.889H21.2223C21.5292 19.889 21.7779 19.6403 21.7779 19.3334V16.5556C21.7779 16.2488 21.5292 16 21.2223 16H15.6667Z" fill="#42a5f5"/> <path fill-rule="evenodd" clip-rule="evenodd" d="M20.8161 12.0731C20.3081 11.3399 19.3782 11.0417 18.6407 11.0044C17.8625 10.965 16.8626 11.1909 16.214 12.0228C15.9391 12.3755 15.8234 12.8047 15.7638 13.1266C15.6989 13.4769 15.6734 13.8601 15.6679 14.2308C15.662 14.6266 15.6786 15.043 15.7066 15.4443H16.8206C16.739 14.3389 16.7471 13.1463 17.0903 12.706C17.7935 11.804 19.4341 12.0295 19.9029 12.706C20.1375 13.0446 20.1372 14.2875 20.0784 15.4443H21.191C21.2127 15.0005 21.2262 14.5404 21.2214 14.1167C21.2174 13.7643 21.2007 13.4106 21.1594 13.1005C21.1263 12.852 21.0553 12.4182 20.8161 12.0731Z" fill="#42a5f5"/></svg>