<svg width="24" height="24" viewBox="0 0 24 24" fill="none" xmlns="http://www.w3.org/2000/svg">
    <defs>
        
        <mask id="decoupe">
            <rect width="100%" height="100%" fill="white" />
            <g stroke="black" stroke-width="2.5"><path vector-effect="non-scaling-stroke" fill-rule="evenodd" clip-rule="evenodd" d="M18.9351 17.5347L17.6653 16.28L17.6803 16.2644C18.5272 15.3232 19.16 14.2097 19.535 13.0004H21V11.9994H17.5003V11H16.5003V11.9999H13V13.0004H18.5848C18.2394 13.9884 17.7006 14.8978 17 15.6754C16.5437 15.1697 16.1553 14.6066 15.8448 14.0004H14.8454C15.2203 14.833 15.7228 15.6021 16.3347 16.28L13.7903 18.7899L14.5003 19.4998L17 17.0002L18.5553 18.5549L18.9351 17.5347ZM21.7499 15.0003H20.7499L18.5003 21H19.5003L20.0602 19.5003H22.4349L23 21H24L21.7499 15.0003ZM20.4401 18.4999L21.2496 16.335L22.0597 18.4999H20.4401Z" fill="black" stroke="black"/><circle cx="20" cy="16" r="3" fill="black" stroke="none" /></g>
        </mask>
    </defs><path d="M7.78388 5H5C3.89543 5 3 5.89543 3 7V17C3 18.1046 3.89543 19 5 19H19C20.1046 19 21 18.1046 21 17V9.875C21 8.77043 20.1046 7.875 19 7.875H12.7161C12.2531 7.875 11.8044 7.71435 11.4466 7.42045L9.05336 5.45455C8.69558 5.16065 8.2469 5 7.78388 5Z" stroke="#42a5f5" stroke-width="2" fill="#42a5f5" mask="url(#decoupe)"/><path fill-rule="evenodd" clip-rule="evenodd" d="M18.9351 17.5347L17.6653 16.28L17.6803 16.2644C18.5272 15.3232 19.16 14.2097 19.535 13.0004H21V11.9994H17.5003V11H16.5003V11.9999H13V13.0004H18.5848C18.2394 13.9884 17.7006 14.8978 17 15.6754C16.5437 15.1697 16.1553 14.6066 15.8448 14.0004H14.8454C15.2203 14.833 15.7228 15.6021 16.3347 16.28L13.7903 18.7899L14.5003 19.4998L17 17.0002L18.5553 18.5549L18.9351 17.5347ZM21.7499 15.0003H20.7499L18.5003 21H19.5003L20.0602 19.5003H22.4349L23 21H24L21.7499 15.0003ZM20.4401 18.4999L21.2496 16.335L22.0597 18.4999H20.4401Z" fill="#C084FC"/></svg>