<svg width="24" height="24" viewBox="0 0 24 24" fill="none" xmlns="http://www.w3.org/2000/svg">
    <defs>
             <clipPath id="hexClip">       <path d="M19.232 11.592C19.07 11.5 18.878 11.5 18.716 11.592L14.453 14.067C14.291 14.159 14.2 14.332 14.2 14.516V19.477C14.2 19.66 14.301 19.833 14.453 19.925L18.716 22.401C18.878 22.492 19.07 22.492 19.232 22.401L23.494 19.925C23.656 19.833 23.747 19.66 23.747 19.477V14.516C23.747 14.332 23.646 14.159 23.494 14.067L19.232 11.592Z" />     </clipPath>     <linearGradient id="main" x1="20.873" y1="13.383" x2="17.478" y2="21.334" gradientUnits="userSpaceOnUse">       <stop stop-color="#3F8B3D"/>       <stop offset="0.64" stop-color="#3F873F"/>       <stop offset="0.93" stop-color="#3DA92E"/>       <stop offset="1" stop-color="#3DAE2B"/>     </linearGradient>     <linearGradient id="r1" x1="18.336" y1="17.396" x2="29.16" y2="11.588" gradientUnits="userSpaceOnUse">       <stop offset="0.14" stop-color="#3F873F"/>       <stop offset="0.4" stop-color="#52A044"/>       <stop offset="0.71" stop-color="#64B749"/>       <stop offset="0.91" stop-color="#6ABF4B"/>     </linearGradient>     <linearGradient id="r2" x1="14.255" y1="16.89" x2="23.88" y2="16.89" gradientUnits="userSpaceOnUse">       <stop offset="0.09" stop-color="#6ABF4B"/>       <stop offset="0.29" stop-color="#64B749"/>       <stop offset="0.6" stop-color="#52A044"/>       <stop offset="0.86" stop-color="#3F873F"/>     </linearGradient>   
        <mask id="decoupe">
            <rect width="100%" height="100%" fill="white" />
            <g stroke="black" stroke-width="2.5">   <path vector-effect="non-scaling-stroke" fill="black" stroke="black" d="M19.232 11.592C19.07 11.5 18.878 11.5 18.716 11.592L14.453 14.067C14.291 14.159 14.2 14.332 14.2 14.516V19.477C14.2 19.66 14.301 19.833 14.453 19.925L18.716 22.401C18.878 22.492 19.07 22.492 19.232 22.401L23.494 19.925C23.656 19.833 23.747 19.66 23.747 19.477V14.516C23.747 14.332 23.646 14.159 23.494 14.067L19.232 11.592Z" />   <polygon vector-effect="non-scaling-stroke" fill="black" stroke="black" points="18.974,11.27 23.705,14.129 18.974,22.736 14.234,19.872" />   <polygon vector-effect="non-scaling-stroke" fill="black" stroke="black" points="18.974,11.27 14.234,14.129 18.974,22.736 23.705,19.872" /><circle cx="20" cy="16" r="3" fill="black" stroke="none" /></g>
        </mask>
    </defs><path d="M7.78388 5H5C3.89543 5 3 5.89543 3 7V17C3 18.1046 3.89543 19 5 19H19C20.1046 19 21 18.1046 21 17V9.875C21 8.77043 20.1046 7.875 19 7.875H12.7161C12.2531 7.875 11.8044 7.71435 11.4466 7.42045L9.05336 5.45455C8.69558 5.16065 8.2469 5 7.78388 5Z" stroke="#52A044" stroke-width="2" fill="#52A044" mask="url(#decoupe)"/>   <path fill="url(#main)" d="M19.232 11.592C19.07 11.5 18.878 11.5 18.716 11.592L14.453 14.067C14.291 14.159 14.2 14.332 14.2 14.516V19.477C14.2 19.66 14.301 19.833 14.453 19.925L18.716 22.401C18.878 22.492 19.07 22.492 19.232 22.401L23.494 19.925C23.656 19.833 23.747 19.66 23.747 19.477V14.516C23.747 14.332 23.646 14.159 23.494 14.067L19.232 11.592Z" />   <polygon fill="url(#r1)" clip-path="url(#hexClip)" points="18.974,11.27 23.705,14.129 18.974,22.736 14.234,19.872" />   <polygon fill="url(#r2)" clip-path="url(#hexClip)" points="18.974,11.27 14.234,14.129 18.974,22.736 23.705,19.872" /></svg>