<svg width="24" height="24" viewBox="0 0 24 24" fill="none" xmlns="http://www.w3.org/2000/svg">
    <defs>
        
        <mask id="decoupe">
            <rect width="100%" height="100%" fill="white" />
            <g stroke="black" stroke-width="2.5"><path vector-effect="non-scaling-stroke" d="M16 19.52C16 20.86 17.09 21.95 18.43 21.95C19.77 21.95 20.86 20.86 20.86 19.52V16" stroke="black" stroke-width="4" stroke-linecap="round"/> <path vector-effect="non-scaling-stroke" d="M16 19.52V16.89L17.72 18.61" stroke="black" stroke-width="4" stroke-linecap="round"/> <path vector-effect="non-scaling-stroke" d="M20.86 15.55C21.7713 15.55 22.51 14.8113 22.51 13.9C22.51 12.9887 21.7713 12.25 20.86 12.25C19.9487 12.25 19.21 12.9887 19.21 13.9C19.21 14.8113 19.9487 15.55 20.86 15.55Z" stroke="black" stroke-width="4" stroke-linecap="round"/><circle cx="20" cy="16" r="3" fill="black" stroke="none" /></g>
        </mask>
    </defs><path d="M7.78388 5H5C3.89543 5 3 5.89543 3 7V17C3 18.1046 3.89543 19 5 19H19C20.1046 19 21 18.1046 21 17V9.875C21 8.77043 20.1046 7.875 19 7.875H12.7161C12.2531 7.875 11.8044 7.71435 11.4466 7.42045L9.05336 5.45455C8.69558 5.16065 8.2469 5 7.78388 5Z" stroke="#42a5f5" stroke-width="2" fill="#42a5f5" mask="url(#decoupe)"/><path d="M16 19.52C16 20.86 17.09 21.95 18.43 21.95C19.77 21.95 20.86 20.86 20.86 19.52V16" stroke="#8B5CF6" stroke-width="1.5" stroke-linecap="round"/> <path d="M16 19.52V16.89L17.72 18.61" stroke="#8B5CF6" stroke-width="1.5" stroke-linecap="round"/> <path d="M20.86 15.55C21.7713 15.55 22.51 14.8113 22.51 13.9C22.51 12.9887 21.7713 12.25 20.86 12.25C19.9487 12.25 19.21 12.9887 19.21 13.9C19.21 14.8113 19.9487 15.55 20.86 15.55Z" stroke="#8B5CF6" stroke-width="1.5" stroke-linecap="round"/></svg>