<svg width="24" height="24" viewBox="0 0 24 24" fill="none" xmlns="http://www.w3.org/2000/svg">
    <defs>
        
        <mask id="decoupe">
            <rect width="100%" height="100%" fill="white" />
            <g stroke="black" stroke-width="2.5"><path vector-effect="non-scaling-stroke" d="M18.6429 12C18.051 12 17.5714 12.4796 17.5714 13.0714V13.7143H15.8571C15.3836 13.7143 15 14.0979 15 14.5714V15.8571C15 16.0937 15.192 16.2857 15.4286 16.2857H15.5818C16.1423 16.2857 16.6523 16.6891 16.7084 17.2467C16.7727 17.8882 16.2711 18.4286 15.6429 18.4286H15.4286C15.192 18.4286 15 18.6206 15 18.8571V20.1429C15 20.6164 15.3836 21 15.8571 21H17.1429C17.3794 21 17.5714 20.808 17.5714 20.5714V20.4182C17.5714 19.8577 17.9748 19.3477 18.5324 19.2916C19.1739 19.2273 19.7143 19.7289 19.7143 20.3571V20.5714C19.7143 20.808 19.9063 21 20.1429 21H21.4286C21.9021 21 22.2857 20.6164 22.2857 20.1429V18.4286H22.9286C23.5204 18.4286 24 17.949 24 17.3571C24 16.7653 23.5204 16.2857 22.9286 16.2857H22.2857V14.5714C22.2857 14.0979 21.9021 13.7143 21.4286 13.7143H19.7143V13.0714C19.7143 12.4796 19.2347 12 18.6429 12Z" fill="black" stroke="black"/><circle cx="20" cy="16" r="3" fill="black" stroke="none" /></g>
        </mask>
    </defs><path d="M7.78388 5H5C3.89543 5 3 5.89543 3 7V17C3 18.1046 3.89543 19 5 19H19C20.1046 19 21 18.1046 21 17V9.875C21 8.77043 20.1046 7.875 19 7.875H12.7161C12.2531 7.875 11.8044 7.71435 11.4466 7.42045L9.05336 5.45455C8.69558 5.16065 8.2469 5 7.78388 5Z" stroke="#42a5f5" stroke-width="2" fill="#42a5f5" mask="url(#decoupe)"/><path d="M18.6429 12C18.051 12 17.5714 12.4796 17.5714 13.0714V13.7143H15.8571C15.3836 13.7143 15 14.0979 15 14.5714V15.8571C15 16.0937 15.192 16.2857 15.4286 16.2857H15.5818C16.1423 16.2857 16.6523 16.6891 16.7084 17.2467C16.7727 17.8882 16.2711 18.4286 15.6429 18.4286H15.4286C15.192 18.4286 15 18.6206 15 18.8571V20.1429C15 20.6164 15.3836 21 15.8571 21H17.1429C17.3794 21 17.5714 20.808 17.5714 20.5714V20.4182C17.5714 19.8577 17.9748 19.3477 18.5324 19.2916C19.1739 19.2273 19.7143 19.7289 19.7143 20.3571V20.5714C19.7143 20.808 19.9063 21 20.1429 21H21.4286C21.9021 21 22.2857 20.6164 22.2857 20.1429V18.4286H22.9286C23.5204 18.4286 24 17.949 24 17.3571C24 16.7653 23.5204 16.2857 22.9286 16.2857H22.2857V14.5714C22.2857 14.0979 21.9021 13.7143 21.4286 13.7143H19.7143V13.0714C19.7143 12.4796 19.2347 12 18.6429 12Z" fill="#14B8A6"/></svg>