<svg width="24" height="24" viewBox="0 0 24 24" fill="none" xmlns="http://www.w3.org/2000/svg">
    <defs>
        
        <mask id="decoupe">
            <rect width="100%" height="100%" fill="white" />
            <g stroke="black" stroke-width="2.5"><path vector-effect="non-scaling-stroke" transform="translate(13, 11.5) scale(0.08)" fill="black" stroke="black" d="M60.83,17.18c8-8.35,13.62-15.57,26-17C110-2.46,131.27,21.26,119.57,44.61c-2.19,4.37-5.86,9.27-10.24,14.32v-.61h-30l-1.06,1.1L73.5,64.36l-9.88-19-3.28-6.3L57.2,45.46l-9,18.16L39.38,50.75l-3.12-4.52-7,11.4H11C4.74,49.1.38,39.89,0,29.94-.63,11.74,13.73.08,30.25.3c14.76.19,21,7.53,30.58,16.88Zm42.48,48.34L102,66.93c-8.23,8.52-17.34,16.87-23.72,23.2l-17.4,17.26L46.46,93.55c-8.76-8.44-20.32-18-29.71-28.72H33.19l1.06-1.72,2.32-3.76L45.8,72.74l3.47,5L52,72.29,60.48,55,69.37,72.1l2.3,4.43L75.14,73l7.2-7.42Z"/><circle cx="20" cy="16" r="3" fill="black" stroke="none" /></g>
        </mask>
    </defs><path d="M7.78388 5H5C3.89543 5 3 5.89543 3 7V17C3 18.1046 3.89543 19 5 19H19C20.1046 19 21 18.1046 21 17V9.875C21 8.77043 20.1046 7.875 19 7.875H12.7161C12.2531 7.875 11.8044 7.71435 11.4466 7.42045L9.05336 5.45455C8.69558 5.16065 8.2469 5 7.78388 5Z" stroke="#42a5f5" stroke-width="2" fill="#42a5f5" mask="url(#decoupe)"/><path transform="translate(13, 11.5) scale(0.08)" fill="#EF4444" d="M60.83,17.18c8-8.35,13.62-15.57,26-17C110-2.46,131.27,21.26,119.57,44.61c-2.19,4.37-5.86,9.27-10.24,14.32v-.61h-30l-1.06,1.1L73.5,64.36l-9.88-19-3.28-6.3L57.2,45.46l-9,18.16L39.38,50.75l-3.12-4.52-7,11.4H11C4.74,49.1.38,39.89,0,29.94-.63,11.74,13.73.08,30.25.3c14.76.19,21,7.53,30.58,16.88Zm42.48,48.34L102,66.93c-8.23,8.52-17.34,16.87-23.72,23.2l-17.4,17.26L46.46,93.55c-8.76-8.44-20.32-18-29.71-28.72H33.19l1.06-1.72,2.32-3.76L45.8,72.74l3.47,5L52,72.29,60.48,55,69.37,72.1l2.3,4.43L75.14,73l7.2-7.42Z"/></svg>