<svg width="24" height="24" viewBox="0 0 24 24" fill="none" xmlns="http://www.w3.org/2000/svg">
    <defs>
        
        <mask id="decoupe">
            <rect width="100%" height="100%" fill="white" />
            <g stroke="black" stroke-width="2.5"><path vector-effect="non-scaling-stroke" d="M14 12C14 11.4477 14.4477 11 15 11H22C22.5523 11 23 11.4477 23 12V19C23 19.5523 22.5523 20 22 20H15C14.4477 20 14 19.5523 14 19V12ZM14.8182 14.0911V19.1818H22.1818V14.0911H14.8182ZM22.1818 13.2729V11.8182H14.8182V13.2729H22.1818ZM16.0455 15.5008C16.0455 15.2744 16.229 15.0909 16.4554 15.0909V15.0909C16.6818 15.0909 16.8653 15.2744 16.8653 15.5008V15.5008C16.8653 15.7272 16.6818 15.9107 16.4554 15.9107V15.9107C16.229 15.9107 16.0455 15.7272 16.0455 15.5008V15.5008ZM17.6818 15.5008C17.6818 15.2744 17.8653 15.0909 18.0917 15.0909V15.0909C18.3181 15.0909 18.5016 15.2744 18.5016 15.5008V15.5008C18.5016 15.7272 18.3181 15.9107 18.0917 15.9107V15.9107C17.8653 15.9107 17.6818 15.7272 17.6818 15.5008V15.5008ZM19.3182 15.5008C19.3182 15.2744 19.5017 15.0909 19.7281 15.0909V15.0909C19.9545 15.0909 20.138 15.2744 20.138 15.5008V15.5008C20.138 15.7272 19.9545 15.9107 19.7281 15.9107V15.9107C19.5017 15.9107 19.3182 15.7272 19.3182 15.5008V15.5008Z" fill="black" stroke="black" stroke-width="4"/><circle cx="20" cy="16" r="3" fill="black" stroke="none" /></g>
        </mask>
    </defs><path d="M7.78388 5H5C3.89543 5 3 5.89543 3 7V17C3 18.1046 3.89543 19 5 19H19C20.1046 19 21 18.1046 21 17V9.875C21 8.77043 20.1046 7.875 19 7.875H12.7161C12.2531 7.875 11.8044 7.71435 11.4466 7.42045L9.05336 5.45455C8.69558 5.16065 8.2469 5 7.78388 5Z" stroke="#42a5f5" stroke-width="2" fill="#42a5f5" mask="url(#decoupe)"/><path d="M14 12C14 11.4477 14.4477 11 15 11H22C22.5523 11 23 11.4477 23 12V19C23 19.5523 22.5523 20 22 20H15C14.4477 20 14 19.5523 14 19V12ZM14.8182 14.0911V19.1818H22.1818V14.0911H14.8182ZM22.1818 13.2729V11.8182H14.8182V13.2729H22.1818ZM16.0455 15.5008C16.0455 15.2744 16.229 15.0909 16.4554 15.0909V15.0909C16.6818 15.0909 16.8653 15.2744 16.8653 15.5008V15.5008C16.8653 15.7272 16.6818 15.9107 16.4554 15.9107V15.9107C16.229 15.9107 16.0455 15.7272 16.0455 15.5008V15.5008ZM17.6818 15.5008C17.6818 15.2744 17.8653 15.0909 18.0917 15.0909V15.0909C18.3181 15.0909 18.5016 15.2744 18.5016 15.5008V15.5008C18.5016 15.7272 18.3181 15.9107 18.0917 15.9107V15.9107C17.8653 15.9107 17.6818 15.7272 17.6818 15.5008V15.5008ZM19.3182 15.5008C19.3182 15.2744 19.5017 15.0909 19.7281 15.0909V15.0909C19.9545 15.0909 20.138 15.2744 20.138 15.5008V15.5008C20.138 15.7272 19.9545 15.9107 19.7281 15.9107V15.9107C19.5017 15.9107 19.3182 15.7272 19.3182 15.5008V15.5008Z" fill="#F87171" stroke="#F87171" stroke-width="0.5"/></svg>