<svg width="24" height="24" viewBox="0 0 24 24" fill="none" xmlns="http://www.w3.org/2000/svg">
    <defs>
        
        <mask id="decoupe">
            <rect width="100%" height="100%" fill="white" />
            <g stroke="black" stroke-width="2.5"><path vector-effect="non-scaling-stroke" fill-rule="evenodd" clip-rule="evenodd" d="M18.5 11.4202C16.0137 11.4202 14 13.5215 14 16.1158C14 18.1936 15.2881 19.9486 17.0768 20.5708C17.3018 20.6119 17.3862 20.471 17.3862 20.3478C17.3862 20.2363 17.3806 19.8665 17.3806 19.4732C16.25 19.6904 15.9575 19.1856 15.8675 18.9215C15.8168 18.7865 15.5975 18.3697 15.4062 18.2582C15.2487 18.1702 15.0237 17.953 15.4006 17.9471C15.755 17.9413 16.0081 18.2876 16.0925 18.4284C16.4975 19.1386 17.1443 18.9391 17.4031 18.8158C17.4425 18.5106 17.5606 18.3052 17.69 18.1878C16.6887 18.0704 15.6425 17.6654 15.6425 15.8693C15.6425 15.3586 15.8168 14.936 16.1037 14.6073C16.0587 14.4899 15.9012 14.0086 16.1487 13.363C16.1487 13.363 16.5256 13.2397 17.3862 13.8443C17.7462 13.7386 18.1287 13.6858 18.5112 13.6858C18.8937 13.6858 19.2762 13.7386 19.6362 13.8443C20.4968 13.2339 20.8737 13.363 20.8737 13.363C21.1212 14.0086 20.9637 14.4899 20.9187 14.6073C21.2056 14.936 21.38 15.3528 21.38 15.8693C21.38 17.6713 20.3281 18.0704 19.3268 18.1878C19.49 18.3345 19.6306 18.6163 19.6306 19.0565C19.6306 19.6845 19.625 20.1893 19.625 20.3478C19.625 20.471 19.7093 20.6178 19.9343 20.5708C20.8277 20.2561 21.6039 19.657 22.1539 18.8579C22.7038 18.0587 22.9997 17.0997 23 16.1158C23 13.5215 20.9862 11.4202 18.5 11.4202Z" fill="black" stroke="black"/><circle cx="20" cy="16" r="3" fill="black" stroke="none" /></g>
        </mask>
    </defs><path d="M7.78388 5H5C3.89543 5 3 5.89543 3 7V17C3 18.1046 3.89543 19 5 19H19C20.1046 19 21 18.1046 21 17V9.875C21 8.77043 20.1046 7.875 19 7.875H12.7161C12.2531 7.875 11.8044 7.71435 11.4466 7.42045L9.05336 5.45455C8.69558 5.16065 8.2469 5 7.78388 5Z" stroke="#42a5f5" stroke-width="2" fill="#42a5f5" mask="url(#decoupe)"/><path fill-rule="evenodd" clip-rule="evenodd" d="M18.5 11.4202C16.0137 11.4202 14 13.5215 14 16.1158C14 18.1936 15.2881 19.9486 17.0768 20.5708C17.3018 20.6119 17.3862 20.471 17.3862 20.3478C17.3862 20.2363 17.3806 19.8665 17.3806 19.4732C16.25 19.6904 15.9575 19.1856 15.8675 18.9215C15.8168 18.7865 15.5975 18.3697 15.4062 18.2582C15.2487 18.1702 15.0237 17.953 15.4006 17.9471C15.755 17.9413 16.0081 18.2876 16.0925 18.4284C16.4975 19.1386 17.1443 18.9391 17.4031 18.8158C17.4425 18.5106 17.5606 18.3052 17.69 18.1878C16.6887 18.0704 15.6425 17.6654 15.6425 15.8693C15.6425 15.3586 15.8168 14.936 16.1037 14.6073C16.0587 14.4899 15.9012 14.0086 16.1487 13.363C16.1487 13.363 16.5256 13.2397 17.3862 13.8443C17.7462 13.7386 18.1287 13.6858 18.5112 13.6858C18.8937 13.6858 19.2762 13.7386 19.6362 13.8443C20.4968 13.2339 20.8737 13.363 20.8737 13.363C21.1212 14.0086 20.9637 14.4899 20.9187 14.6073C21.2056 14.936 21.38 15.3528 21.38 15.8693C21.38 17.6713 20.3281 18.0704 19.3268 18.1878C19.49 18.3345 19.6306 18.6163 19.6306 19.0565C19.6306 19.6845 19.625 20.1893 19.625 20.3478C19.625 20.471 19.7093 20.6178 19.9343 20.5708C20.8277 20.2561 21.6039 19.657 22.1539 18.8579C22.7038 18.0587 22.9997 17.0997 23 16.1158C23 13.5215 20.9862 11.4202 18.5 11.4202Z" fill="#A1A1AA"/></svg>