<svg width="24" height="24" viewBox="0 0 24 24" fill="none" xmlns="http://www.w3.org/2000/svg">
    <defs>
        
        <mask id="decoupe">
            <rect width="100%" height="100%" fill="white" />
            <g stroke="black" stroke-width="2.5"><path vector-effect="non-scaling-stroke" d="M24 12.8339L23.6389 18.7264L20.1865 11L24 12.8339ZM21.6087 20.4532L19 22L16.3913 20.4532L16.9219 19.1169H21.0781L21.6087 20.4532ZM19 13.9328L20.367 17.3863H17.633L19 13.9328ZM14.3574 18.7264L14 12.8339L17.8135 11L14.3574 18.7264Z" fill="black" stroke="black"/><circle cx="20" cy="16" r="3" fill="black" stroke="none" /></g>
        </mask>
    </defs><path d="M7.78388 5H5C3.89543 5 3 5.89543 3 7V17C3 18.1046 3.89543 19 5 19H19C20.1046 19 21 18.1046 21 17V9.875C21 8.77043 20.1046 7.875 19 7.875H12.7161C12.2531 7.875 11.8044 7.71435 11.4466 7.42045L9.05336 5.45455C8.69558 5.16065 8.2469 5 7.78388 5Z" stroke="#42a5f5" stroke-width="2" fill="#42a5f5" mask="url(#decoupe)"/><path d="M24 12.8339L23.6389 18.7264L20.1865 11L24 12.8339ZM21.6087 20.4532L19 22L16.3913 20.4532L16.9219 19.1169H21.0781L21.6087 20.4532ZM19 13.9328L20.367 17.3863H17.633L19 13.9328ZM14.3574 18.7264L14 12.8339L17.8135 11L14.3574 18.7264Z" fill="#F87171"/></svg>