<svg width="24" height="24" viewBox="0 0 24 24" fill="none" xmlns="http://www.w3.org/2000/svg">
    <defs>
         <linearGradient id="paint0_linear_4_143" x1="17" y1="19.9686" x2="17" y2="10.0186" gradientUnits="userSpaceOnUse"> <stop stop-color="#0078D4"/> <stop offset="0.16" stop-color="#1380DA"/> <stop offset="0.53" stop-color="#3C91E5"/> <stop offset="0.82" stop-color="#559CEC"/> <stop offset="1" stop-color="#5EA0EF"/> </linearGradient> <clipPath id="clip0_4_143"> <rect width="24" height="24" fill="white"/> </clipPath> 
        <mask id="decoupe">
            <rect width="100%" height="100%" fill="white" />
            <g stroke="black" stroke-width="2.5"><g>  <path vector-effect="non-scaling-stroke" d="M22 11.8729V17.9529L19.5 20L15.625 18.5893V19.9879L13.4314 17.1214L19.825 17.6214V12.1464L22 11.8729ZM19.8686 12.1786L16.2814 10V11.4293L12.9871 12.3971L12 13.6643V16.5421L13.4129 17.1657V13.4779L19.8686 12.1786Z" fill="black" stroke="black"/> </g> <circle cx="20" cy="16" r="3" fill="black" stroke="none" /></g>
        </mask>
    </defs><path d="M7.78388 5H5C3.89543 5 3 5.89543 3 7V17C3 18.1046 3.89543 19 5 19H19C20.1046 19 21 18.1046 21 17V9.875C21 8.77043 20.1046 7.875 19 7.875H12.7161C12.2531 7.875 11.8044 7.71435 11.4466 7.42045L9.05336 5.45455C8.69558 5.16065 8.2469 5 7.78388 5Z" stroke="#42a5f5" stroke-width="2" fill="#42a5f5" mask="url(#decoupe)"/><g clip-path="url(#clip0_4_143)">  <path d="M22 11.8729V17.9529L19.5 20L15.625 18.5893V19.9879L13.4314 17.1214L19.825 17.6214V12.1464L22 11.8729ZM19.8686 12.1786L16.2814 10V11.4293L12.9871 12.3971L12 13.6643V16.5421L13.4129 17.1657V13.4779L19.8686 12.1786Z" fill="url(#paint0_linear_4_143)"/> </g> </svg>