<?xml version="1.0" encoding="utf-8"?>
<!-- Generator: Adobe Illustrator 19.0.0, SVG Export Plug-In . SVG Version: 6.00 Build 0)  -->
<svg version="1.1" id="Layer_1" xmlns="http://www.w3.org/2000/svg" xmlns:xlink="http://www.w3.org/1999/xlink" x="0px" y="0px"
	 viewBox="0 0 512 512" style="enable-background:new 0 0 512 512;" xml:space="preserve">
<style type="text/css">
	.st0{fill:#F39C12;}
	.st1{fill:#F1C40F;}
</style>
<g id="XMLID_1_">
	<path id="XMLID_5_" class="st0" d="M463.2,68.4C399.4,4.6,297.8,3,231.6,68.4c-63.8,63.8-63.8,167.8,0,231.6s167.8,63.8,231.6,0
		C529.4,234.6,527.1,132.2,463.2,68.4z M424.6,107c21.3,21.3,21.3,55.9,0,77.2c-21.3,21.3-55.9,21.3-77.2,0
		c-21.3-21.3-21.3-55.9,0-77.2C368.7,85.7,403.4,85.7,424.6,107z"/>
	<path id="XMLID_8_" class="st1" d="M462.5,48.7c-63.8-63.8-167.8-63.8-231.6,0s-63.8,167.8,0,231.6s167.8,63.8,231.6,0
		C526.3,215.7,526.3,112.5,462.5,48.7z M423.9,87.3c21.3,21.3,21.3,55.9,0,77.2c-21.3,21.3-55.9,21.3-77.2,0
		c-21.3-21.3-21.3-55.9,0-77.2C368.7,66,402.6,66,423.9,87.3z"/>
	
		<rect id="XMLID_9_" x="149.3" y="252.5" transform="matrix(0.7071 0.7071 -0.7071 0.7071 265.47 -81.6143)" class="st1" width="163.9" height="54.4"/>
	<polygon id="XMLID_10_" class="st1" points="173.3,260.6 0,434 0,511.2 77.2,511.2 96.1,492.3 77.2,434 134.7,453.6 154.4,434 
		154.4,395.3 193,395.3 250.5,337.8 	"/>
	<path id="XMLID_14_" class="st0" d="M231.6,318.1l-77.2,77.2H193l57.5-57.5L231.6,318.1z M154.4,395.3l-48.1,48.1l29.1,9.5
		l18.9-18.9C154.4,434,154.4,395.3,154.4,395.3z M86.7,463.1l-48.1,48.1h38.6l18.9-18.9L86.7,463.1z"/>
	<polygon id="XMLID_15_" class="st0" points="193,279.5 0,472.6 0,511.2 77.2,434 211.9,299.2 	"/>
</g>
</svg>
